<svg version="1.1" xmlns="http://www.w3.org/2000/svg" viewBox="0 0 649.5 428.2142857142858" width="649.5" height="428.2142857142858">
  <!-- svg-source:excalidraw -->
  
  <defs>
    <style>
      @font-face {
        font-family: "Virgil";
        src: url("https://excalidraw.com/Virgil.woff2");
      }
      @font-face {
        font-family: "Cascadia";
        src: url("https://excalidraw.com/Cascadia.woff2");
      }
    </style>
  </defs>
  <g stroke-linecap="round" transform="translate(468.49999999999994 10) rotate(0 85.5 35.5)"><path d="M1.18 1.75 C50.31 0.83, 100.1 2.47, 172.14 0.36 M0.31 -0.94 C38.44 0.05, 76.24 -0.03, 170.21 -0.97 M170.47 1.27 C172.32 22.22, 172.03 47.09, 171.91 71.12 M171.11 -0.7 C171.23 21.19, 170.12 42.35, 170.79 70.33 M172.49 71.77 C122.42 67.56, 79.27 70.38, -0.98 72.1 M170.49 70.63 C115.69 69.77, 62.51 69.49, 0.01 70.2 M0.67 71.49 C0.07 48.93, -2.02 28.49, 1.93 0.2 M-0.22 70.22 C-0.54 48.81, -0.01 25.34, -0.54 -0.81" stroke="#000000" stroke-width="1" fill="none"></path></g><g transform="translate(504.99999999999994 20.5) rotate(0 49 25)"><text x="49" y="18" font-family="Virgil, Segoe UI Emoji" font-size="20px" fill="#000000" text-anchor="middle" style="white-space: pre;" direction="ltr">remote </text><text x="49" y="43" font-family="Virgil, Segoe UI Emoji" font-size="20px" fill="#000000" text-anchor="middle" style="white-space: pre;" direction="ltr">repository</text></g><g stroke-linecap="round" transform="translate(10 180) rotate(0 294.2857142857142 119.10714285714289)"><path d="M0.05 0.13 C158.82 -1.28, 318.32 -1.92, 587.96 0.57 M0.08 -0.16 C161.12 2.03, 322.12 1.83, 588.71 0.27 M589.27 -1.3 C588.5 51.64, 588.8 104.17, 588.65 237.5 M589.02 -0.36 C588.31 79.46, 588.61 159.84, 588.34 237.74 M587.79 237.43 C463.57 239.46, 336.96 239.56, 0.14 238.65 M588.2 238.16 C449.88 237.17, 310.98 237.02, -0.03 238.36 M0.28 237.18 C-2.13 189.64, 0.95 142.62, 0.41 1.65 M0.14 238.93 C1.03 152.06, 0 64.51, 0.66 -0.78" stroke="#000000" stroke-width="1" fill="none"></path></g><g transform="translate(17.857142857142833 154.57142857142844) rotate(0 152.5 12.5)"><text x="0" y="18" font-family="Virgil, Segoe UI Emoji" font-size="20px" fill="#000000" text-anchor="start" style="white-space: pre;" direction="ltr">local (development) environment</text></g><g stroke-linecap="round" transform="translate(414.9285714285715 216.07142857142844) rotate(0 89 34.5)"><path d="M-0.27 1.95 C70.1 0.08, 136.4 1.14, 177.48 0.61 M-0.25 -0.47 C35.84 -0.26, 73.62 1.39, 177.18 -0.26 M178.55 -0.47 C179.2 25.19, 178.38 49.27, 178.73 69.22 M177.43 -0.89 C178.16 15.17, 178.09 31.11, 177.13 69.74 M179.53 69.86 C116.77 68.35, 57.85 68.34, -1.28 67.98 M178.26 68.58 C131.24 67.97, 84.41 69.14, -0.99 69.34 M-1.75 68.16 C1.82 46.8, 0.38 26.18, 1.26 -0.45 M0.69 69.43 C-0.65 52.85, 0.68 37.39, -0.09 -0.99" stroke="#000000" stroke-width="1" fill="none"></path></g><g transform="translate(454.9285714285715 225.57142857142844) rotate(0 49 25)"><text x="49" y="18" font-family="Virgil, Segoe UI Emoji" font-size="20px" fill="#000000" text-anchor="middle" style="white-space: pre;" direction="ltr">local</text><text x="49" y="43" font-family="Virgil, Segoe UI Emoji" font-size="20px" fill="#000000" text-anchor="middle" style="white-space: pre;" direction="ltr">repository</text></g><g stroke-linecap="round" transform="translate(21.0714285714285 218.21428571428578) rotate(0 89.5 34)"><path d="M1.14 0.36 C54.99 -0.33, 112.51 -1.13, 177.12 0.38 M-0.79 -0.97 C46.96 1.53, 92.4 0.58, 179.63 0.42 M179.91 0.12 C179.28 14.24, 179.92 30.41, 177.59 69.06 M178.79 -0.67 C178.34 16.92, 177.74 35.72, 179.39 67.02 M178.02 69.1 C143.22 69.86, 105.44 67.75, -0.75 66.14 M179.01 67.2 C127.56 67.63, 75.26 67.59, 0.25 68.17 M1.93 68.2 C1.09 53.76, 1.86 35.12, -1.55 0.32 M-0.54 67.19 C0.32 40.84, -0.57 14.54, -0.35 -0.79" stroke="#000000" stroke-width="1" fill="none"></path></g><g transform="translate(29.0714285714285 239.71428571428578) rotate(0 81.5 12.5)"><text x="81.5" y="18" font-family="Virgil, Segoe UI Emoji" font-size="20px" fill="#000000" text-anchor="middle" style="white-space: pre;" direction="ltr">working directory</text></g><g stroke-linecap="round" transform="translate(217.99999999999994 218.03571428571468) rotate(0 90 33.5)"><path d="M1.42 -0.52 C64.83 -0.51, 128.82 0.58, 179.49 -0.95 M0.69 -0.82 C39.43 0, 79.81 -1.41, 180.27 -0.24 M179.14 0.73 C180.26 21.74, 181.11 45.43, 178.85 65.23 M179.43 -0.87 C180.3 19.07, 178.57 36.39, 180.76 67.43 M181.09 65.72 C133.77 66.58, 87.71 67.06, 0.52 66.17 M180.38 66.01 C126.18 67.13, 71.84 66.27, -0.87 66.58 M1.97 68.26 C-0.51 38.87, 0.26 15.56, 1.39 0.85 M-0.93 66.91 C-0.45 50.14, -0.24 33.14, -0.46 0.53" stroke="#000000" stroke-width="1" fill="none"></path></g><g transform="translate(244.49999999999994 239.03571428571468) rotate(0 63.5 12.5)"><text x="63.5" y="18" font-family="Virgil, Segoe UI Emoji" font-size="20px" fill="#000000" text-anchor="middle" style="white-space: pre;" direction="ltr">staging area</text></g><g stroke-linecap="round" transform="translate(469.28571428571416 80.96428571428578) rotate(0 84.5 42.5)"><path d="M0.61 -1.88 C38.18 -0.35, 75.09 -0.5, 167.41 -1.94 M-0.26 0.63 C57.02 0.6, 113.48 1.14, 169.45 0.06 M169.22 -1.41 C169.7 25.02, 167.49 49.99, 168.58 83.66 M169.74 0.39 C167.54 22.2, 169.28 46.78, 168.51 85.55 M167.98 84.25 C113.4 83.66, 62.04 83.09, 0.02 83.4 M169.34 85.25 C119.57 82.71, 68.92 82.91, 0.97 85.1 M-0.45 83.45 C-0.51 59.13, 0.55 30.68, -1.07 -1.62 M-0.99 84.65 C0 51.95, 0.33 21.11, -0.24 -0.46" stroke="#000000" stroke-width="1" fill="none"></path></g><g transform="translate(475.28571428571416 98.46428571428578) rotate(0 78.5 25)"><text x="78.5" y="18" font-family="Virgil, Segoe UI Emoji" font-size="20px" fill="#000000" text-anchor="middle" style="white-space: pre;" direction="ltr">README.md</text><text x="78.5" y="43" font-family="Virgil, Segoe UI Emoji" font-size="20px" fill="#000000" text-anchor="middle" style="white-space: pre;" direction="ltr">python_ex1/id.py</text></g><g stroke-linecap="round" transform="translate(415.28571428571416 282.9642857142858) rotate(0 89 42.5)"><path d="M0.38 -0.79 C48.25 0.73, 95.92 -0.26, 178.7 1.37 M0.42 -0.78 C39.15 -1.36, 78.22 -1.07, 178.04 -0.43 M179.06 -0.86 C176.94 26.84, 177.67 55.89, 177.45 83.86 M177.02 -0.98 C179.4 18.57, 178.14 36.83, 178.18 85.54 M176.14 84.74 C136.54 83.51, 94.06 82.73, -0.13 85.75 M178.17 84.38 C141.35 85.02, 107.42 85.54, 0.25 85.99 M0.32 86.72 C1.58 54.99, -0.88 21.64, 1.58 -1.86 M-0.79 84.16 C0.39 60.83, 0.6 35.14, -0.13 0.33" stroke="#000000" stroke-width="1" fill="none"></path></g><g transform="translate(420.28571428571416 300.4642857142858) rotate(0 84 25)"><text x="84" y="18" font-family="Virgil, Segoe UI Emoji" font-size="20px" fill="#000000" text-anchor="middle" style="white-space: pre;" direction="ltr">README.md</text><text x="84" y="43" font-family="Virgil, Segoe UI Emoji" font-size="20px" fill="#000000" text-anchor="middle" style="white-space: pre;" direction="ltr">python_ex1/ID.py</text></g><g stroke-linecap="round" transform="translate(20.785714285714164 285.9642857142858) rotate(0 91 51.5)"><path d="M-0.51 -0.95 C35.87 -1.22, 75.61 2.09, 180.37 -0.53 M0.27 -0.24 C66.57 1.48, 132.27 0.99, 182.37 0.11 M180.85 -1.77 C182.13 22.3, 182 46.15, 180.27 104.49 M182.76 0.43 C180.51 35.42, 181.17 70.28, 181.36 102.49 M182.52 102.17 C134.2 101.16, 86.24 103.52, -1.98 103.67 M181.13 102.58 C123.89 101.98, 64.09 102.87, 0.63 102.78 M1.39 103.85 C-1.24 78.48, 1.41 55.35, -0.19 -1.99 M-0.46 103.53 C0.56 75.23, 0.68 48.69, 0.44 0.05" stroke="#000000" stroke-width="1" fill="none"></path></g><g transform="translate(27.785714285714164 312.4642857142858) rotate(0 84 25)"><text x="84" y="18" font-family="Virgil, Segoe UI Emoji" font-size="20px" fill="#000000" text-anchor="middle" style="white-space: pre;" direction="ltr">README.md</text><text x="84" y="43" font-family="Virgil, Segoe UI Emoji" font-size="20px" fill="#000000" text-anchor="middle" style="white-space: pre;" direction="ltr">python_ex1/ID.py</text></g></svg>