<svg version="1.1" xmlns="http://www.w3.org/2000/svg" viewBox="0 0 447.25 132.5" width="447.25" height="132.5">
  <!-- svg-source:excalidraw -->
  
  <defs>
    <style>
      @font-face {
        font-family: "Virgil";
        src: url("https://excalidraw.com/Virgil.woff2");
      }
      @font-face {
        font-family: "Cascadia";
        src: url("https://excalidraw.com/Cascadia.woff2");
      }
    </style>
  </defs>
  <g stroke-linecap="round" transform="translate(10 10) rotate(0 53.5 21)"><path d="M-0.19 -1.63 C28.22 1.67, 53.46 1.14, 106.13 -1.83 M-0.38 0.11 C22.99 -0.21, 47.41 -1.28, 107.26 -0.16 M106.16 1.87 C107.99 12.51, 106.46 21.83, 107.36 42.02 M107.74 -0.55 C106.28 11.12, 107.27 23.08, 106.75 42.63 M105.07 41.52 C66.27 40.76, 20.52 42.24, 0.19 42.8 M107.2 41.77 C72.8 43.6, 39.48 43.48, 0.07 42.31 M1.23 40.36 C0.97 26.13, 0.03 14.06, -0.64 -1.17 M0.59 41.04 C-0.81 29.17, -0.76 15.34, 0.48 -0.01" stroke="#000000" stroke-width="1" fill="none"></path></g><g transform="translate(22 18.5) rotate(0 41.5 12.5)"><text x="41.5" y="18" font-family="Virgil, Segoe UI Emoji" font-size="20px" fill="#000000" text-anchor="middle" style="white-space: pre;" direction="ltr">a0f8f01</text></g><g stroke-linecap="round"><g transform="translate(161.5 29) rotate(0 -22.024602276245105 -0.02647662877103585)"><path d="M-0.35 0.04 C-7.78 0.04, -37.26 -0.49, -44.85 -0.22 M1.67 -0.99 C-5.88 -0.82, -38.19 0.78, -45.72 0.94" stroke="#000000" stroke-width="1" fill="none"></path></g><g transform="translate(161.5 29) rotate(0 -22.024602276245105 -0.02647662877103585)"><path d="M-24.82 -7.29 C-31.85 -6.79, -34.47 -4.8, -45.83 1.14 M-24.54 -7.94 C-31.93 -5.72, -37.57 -3.29, -46.63 0.76" stroke="#000000" stroke-width="1" fill="none"></path></g><g transform="translate(161.5 29) rotate(0 -22.024602276245105 -0.02647662877103585)"><path d="M-24.24 8.09 C-31.4 4.34, -34.18 2.09, -45.83 1.14 M-23.97 7.44 C-31.52 5.11, -37.34 2.99, -46.63 0.76" stroke="#000000" stroke-width="1" fill="none"></path></g></g><g stroke-linecap="round" transform="translate(168 10.5) rotate(0 53.5 21)"><path d="M-0.14 -1.35 C35.75 0.76, 67.21 1.12, 108.23 -0.06 M-0.91 -0.78 C31.48 -0.16, 63.15 -0.39, 107.85 -0.42 M106.05 -1.81 C106.8 14.13, 107.13 32.09, 106.98 42.31 M107.97 0.44 C105.9 11.72, 107.88 22.23, 107.37 42.65 M105.71 42.87 C81.91 44.2, 60.03 41.21, 0.31 41.54 M107.46 42.17 C65.35 41.23, 24.49 41.24, 0.46 41.17 M-0.89 41.18 C0.84 27.97, -1.07 16.16, 0.52 -0.62 M-0.11 42.14 C-0.21 31.42, -0.86 20.78, -0.88 -0.98" stroke="#000000" stroke-width="1" fill="none"></path></g><g transform="translate(181.5 19) rotate(0 40 12.5)"><text x="40" y="18" font-family="Virgil, Segoe UI Emoji" font-size="20px" fill="#000000" text-anchor="middle" style="white-space: pre;" direction="ltr">e8f13f4</text></g><g stroke-linecap="round"><g transform="translate(328.02314814814827 30.571906715300543) rotate(0 -25.70943075891705 0.9902877687113687)"><path d="M-0.74 1.07 C-9.52 1, -44.18 0.41, -52.49 0.44 M1.07 0.59 C-7.34 0.58, -41.54 1.21, -50.18 1.54" stroke="#000000" stroke-width="1" fill="none"></path></g><g transform="translate(328.02314814814827 30.571906715300543) rotate(0 -25.70943075891705 0.9902877687113687)"><path d="M-24.32 -9.21 C-35.07 -3.17, -41.36 -2.9, -48.3 0.76 M-26.27 -8.23 C-35.11 -4.8, -43.63 -1.22, -50.39 1.36" stroke="#000000" stroke-width="1" fill="none"></path></g><g transform="translate(328.02314814814827 30.571906715300543) rotate(0 -25.70943075891705 0.9902877687113687)"><path d="M-23.85 8.49 C-34.87 8.91, -41.31 3.55, -48.3 0.76 M-25.8 9.46 C-34.94 6.08, -43.63 2.85, -50.39 1.36" stroke="#000000" stroke-width="1" fill="none"></path></g></g><g stroke-linecap="round" transform="translate(330.25 13.5) rotate(0 53.5 18.5)"><path d="M-1.26 -1.39 C41.53 -0.98, 78.38 0.93, 106.22 1.7 M-0.28 0.2 C38.5 1.14, 77.37 -0.04, 106.82 -0.83 M106 1.03 C107.78 9.64, 106.91 21.53, 105.77 38.71 M107.73 0.1 C107.76 14.04, 106.31 28.38, 106.21 37.52 M105.77 35.87 C76.48 37.82, 48.74 37.94, 0.81 38.75 M107.78 36.09 C68.35 37.42, 29.59 36.69, 0.14 37.12 M1.48 37.11 C1.24 29.3, -1.02 18.25, -0.73 0.99 M-0.18 37.85 C-0.28 23.58, 0.67 9.49, 0.09 -0.24" stroke="#000000" stroke-width="1" fill="none"></path></g><g transform="translate(337.75 19.5) rotate(0 46 12.5)"><text x="46" y="18" font-family="Virgil, Segoe UI Emoji" font-size="20px" fill="#000000" text-anchor="middle" style="white-space: pre;" direction="ltr">0b8a494</text></g><g stroke-linecap="round"><g transform="translate(269.25578703703695 102.57190671530054) rotate(0 -22.137162450162123 -22.783901341775845)"><path d="M-0.64 0.7 C-8.26 -7.17, -38.01 -38.43, -45.5 -46.26 M1.23 0.02 C-6.02 -7.82, -35.79 -37.67, -43.19 -45.27" stroke="#364fc7" stroke-width="1" fill="none"></path></g><g transform="translate(269.25578703703695 102.57190671530054) rotate(0 -22.137162450162123 -22.783901341775845)"><path d="M-14.93 -33.67 C-26.51 -38.08, -35.21 -39.79, -42.99 -43.8 M-15.47 -31.78 C-21.25 -34.87, -27.65 -37.58, -42.91 -45.65" stroke="#364fc7" stroke-width="1" fill="none"></path></g><g transform="translate(269.25578703703695 102.57190671530054) rotate(0 -22.137162450162123 -22.783901341775845)"><path d="M-29.54 -19.27 C-36.61 -28.17, -40.67 -34.44, -42.99 -43.8 M-30.08 -17.37 C-32.49 -23.54, -35.66 -29.44, -42.91 -45.65" stroke="#364fc7" stroke-width="1" fill="none"></path></g></g><g stroke-linecap="round" transform="translate(271.48263888888914 85.5) rotate(0 53.5 18.5)"><path d="M-1.27 -1.73 C39.21 -2.45, 82.25 -0.42, 108.47 -1.56 M0.62 0.75 C23.51 -0.31, 46.55 -0.39, 106.62 0.01 M107.64 0.85 C105.95 12.95, 108.48 29.68, 105.52 37.23 M106.71 0.32 C106.83 7.46, 106.6 15.22, 107.42 37.48 M108.09 36.92 C63.28 38.39, 21.71 37.18, 0.06 37.57 M107.85 36.21 C83.13 37.75, 60.43 37.15, 0.81 36.51 M1.97 35.02 C-0.86 25.31, -2.12 15.89, 0.9 -1.64 M-0.69 37.86 C-0.34 29.67, 0.17 20.71, -0.68 0.13" stroke="#364fc7" stroke-width="1" fill="none"></path></g><g transform="translate(279.98263888888914 91.5) rotate(0 45 12.5)"><text x="45" y="18" font-family="Virgil, Segoe UI Emoji" font-size="20px" fill="#364fc7" text-anchor="middle" style="white-space: pre;" direction="ltr">9a98eb2</text></g></svg>