<svg version="1.1" xmlns="http://www.w3.org/2000/svg" viewBox="0 0 648.5714285714284 370.71428571428567" width="648.5714285714284" height="370.71428571428567">
  <!-- svg-source:excalidraw -->
  
  <defs>
    <style>
      @font-face {
        font-family: "Virgil";
        src: url("https://excalidraw.com/Virgil.woff2");
      }
      @font-face {
        font-family: "Cascadia";
        src: url("https://excalidraw.com/Cascadia.woff2");
      }
    </style>
  </defs>
  <g stroke-linecap="round" transform="translate(474.99999999999994 10) rotate(0 81.78571428571422 53.92857142857139)"><path d="M-0.14 -0.66 C62.23 -0.45, 125.53 0.14, 164.63 -1.51 M0.01 0.17 C51.37 -1.44, 101.94 -0.28, 164.45 -0.18 M165.16 0.36 C163.15 43, 165.65 86.94, 161.6 108.63 M163.53 0.3 C161.99 23.52, 161.89 48.1, 163 107.6 M161.62 109.41 C97.72 106.72, 32.6 108.29, 0.2 107.83 M163.49 108.51 C118.94 107.98, 73.64 107.32, 0.15 107.2 M1.11 106.55 C-0.74 74.33, 0.83 44.16, 0.09 0.09 M0.95 108.36 C-0.49 82.89, 0.62 60.84, -0.81 0.65" stroke="#000000" stroke-width="1" fill="none"></path></g><g transform="translate(507.78571428571416 26.428571428571445) rotate(0 49 25)"><text x="49" y="18" font-family="Virgil, Segoe UI Emoji" font-size="20px" fill="#000000" text-anchor="middle" style="white-space: pre;" direction="ltr">remote</text><text x="49" y="43" font-family="Virgil, Segoe UI Emoji" font-size="20px" fill="#000000" text-anchor="middle" style="white-space: pre;" direction="ltr">repository</text></g><g stroke-linecap="round" transform="translate(10 179.99999999999994) rotate(0 294.2857142857142 90.35714285714286)"><path d="M-0.29 0.41 C193.22 -0.04, 387.45 0.31, 589.13 -0.19 M-0.01 -0.08 C131.26 2.13, 262.81 1.87, 588.7 0 M589.37 0.46 C586.91 56.76, 586.82 117.19, 587.18 178.74 M588.33 0.07 C586.18 66.91, 587.75 134.66, 588.08 181.71 M588.46 180.62 C441.31 180.47, 294.76 180.3, 0.48 181.2 M588.77 180.53 C445.24 181.95, 301.6 182.32, 0.39 180.58 M1.83 182.04 C2.73 139.04, 1.13 93.86, 1.91 1.46 M0.72 181.45 C1.27 133.59, 0.28 88.37, -0.81 0.43" stroke="#000000" stroke-width="1" fill="none"></path></g><g transform="translate(17.857142857142833 154.57142857142856) rotate(0 152.5 12.5)"><text x="0" y="18" font-family="Virgil, Segoe UI Emoji" font-size="20px" fill="#000000" text-anchor="start" style="white-space: pre;" direction="ltr">local (development) environment</text></g><g stroke-linecap="round" transform="translate(393.9285714285715 216.07142857142856) rotate(0 81.78571428571422 53.92857142857139)"><path d="M-1.32 -1.55 C55.48 -0.52, 114.69 1.74, 165.26 -1.68 M0.13 0.61 C52.81 -0.19, 107.46 0.63, 163.44 -0.7 M162.99 0.89 C164.41 32.3, 164.66 64.19, 163.27 109.58 M164.02 -0.54 C162.94 38.89, 162.49 77.19, 163.89 108.34 M164.2 109.41 C102.44 110.59, 41.02 108.83, 0.19 109.18 M163.68 107.8 C124.02 108.76, 85.13 109.12, 0.95 107.98 M-0.75 106.82 C-0.97 70.25, 1.56 26.96, 1.72 1.66 M-0.78 107.8 C-1 67.36, 0 28.47, 0.42 -0.53" stroke="#000000" stroke-width="1" fill="none"></path></g><g transform="translate(426.7142857142857 232.49999999999994) rotate(0 49 25)"><text x="49" y="18" font-family="Virgil, Segoe UI Emoji" font-size="20px" fill="#000000" text-anchor="middle" style="white-space: pre;" direction="ltr">local</text><text x="49" y="43" font-family="Virgil, Segoe UI Emoji" font-size="20px" fill="#000000" text-anchor="middle" style="white-space: pre;" direction="ltr">repository</text></g><g stroke-linecap="round" transform="translate(31.0714285714285 218.21428571428567) rotate(0 82 53.92857142857139)"><path d="M0.26 1.35 C63.37 -1.69, 126.45 0.05, 162.78 0.5 M-0.46 0.57 C52.27 1.02, 106.02 0.21, 164.67 -0.18 M162.83 1.99 C164.96 38.47, 165.31 82, 165.4 108 M163.08 -0.57 C163.24 39.33, 163.58 77.17, 163.24 107.06 M165.73 108.24 C102.89 105.76, 38.77 105.41, 1.79 109.22 M164.81 107.06 C130.47 109.4, 96.63 108.12, 0.42 108.7 M0.24 106.57 C-1.23 82.7, -2.15 56.81, 0.17 -1.97 M-0.92 107.1 C0.81 80.58, 0.03 51.04, 0.94 -0.86" stroke="#000000" stroke-width="1" fill="none"></path></g><g transform="translate(68.85714285714272 247.14285714285705) rotate(0 44 25)"><text x="44" y="18" font-family="Virgil, Segoe UI Emoji" font-size="20px" fill="#000000" text-anchor="middle" style="white-space: pre;" direction="ltr">working </text><text x="44" y="43" font-family="Virgil, Segoe UI Emoji" font-size="20px" fill="#000000" text-anchor="middle" style="white-space: pre;" direction="ltr">directory</text></g></svg>