<svg version="1.1" xmlns="http://www.w3.org/2000/svg" viewBox="0 0 648.5714285714284 370.7142857142856" width="648.5714285714284" height="370.7142857142856">
  <!-- svg-source:excalidraw -->
  
  <defs>
    <style>
      @font-face {
        font-family: "Virgil";
        src: url("https://excalidraw.com/Virgil.woff2");
      }
      @font-face {
        font-family: "Cascadia";
        src: url("https://excalidraw.com/Cascadia.woff2");
      }
    </style>
  </defs>
  <g stroke-linecap="round" transform="translate(474.99999999999994 10) rotate(0 81.78571428571422 53.92857142857139)"><path d="M-1.1 0.33 C36.2 -1.6, 67.15 0.76, 165.29 0.96 M0.47 -0.93 C47.71 0.03, 95.58 0.35, 162.72 -0.75 M162.62 1.25 C162.03 27.99, 163.06 56.33, 163.32 105.88 M163.76 -0.84 C163.41 28.55, 164.65 58.63, 163.95 107 M162.23 107.93 C110.13 107.96, 53.37 106.54, 0.19 109.44 M163.62 107.98 C112.7 106.19, 60.51 106.44, 0.2 108.68 M-1.06 107.93 C-1.09 67.58, -1.48 29.74, -1.51 -1.68 M0.34 108.48 C-0.22 64.92, 0.52 22.48, 0.16 0.63" stroke="#000000" stroke-width="1" fill="none"></path></g><g transform="translate(507.78571428571416 26.428571428571388) rotate(0 49 25)"><text x="49" y="18" font-family="Virgil, Segoe UI Emoji" font-size="20px" fill="#000000" text-anchor="middle" style="white-space: pre;" direction="ltr">remote</text><text x="49" y="43" font-family="Virgil, Segoe UI Emoji" font-size="20px" fill="#000000" text-anchor="middle" style="white-space: pre;" direction="ltr">repository</text></g><g stroke-linecap="round" transform="translate(10 179.9999999999999) rotate(0 294.2857142857142 90.35714285714286)"><path d="M0.76 -0.76 C165.02 -0.21, 331.89 -0.01, 588.49 0.63 M0.12 -0.18 C159.82 2.14, 318.68 1.89, 588.42 -0.11 M587.32 -0.35 C587.49 64.35, 587.46 127.42, 587.98 182.09 M587.67 -0.63 C589.26 47.87, 589.29 94.33, 588.92 180.59 M589.09 180.6 C397.51 180.11, 207.09 181.43, 0.1 180.98 M588.64 180.36 C439.51 180.76, 291.3 181.34, 0.25 181.05 M-0.2 179.48 C0.37 129.73, -0.55 77.14, 1.98 -0.88 M-0.7 180.83 C-0.57 129.53, -0.46 77.54, 0.32 -0.76" stroke="#000000" stroke-width="1" fill="none"></path></g><g transform="translate(17.857142857142833 154.57142857142856) rotate(0 152.5 12.5)"><text x="0" y="18" font-family="Virgil, Segoe UI Emoji" font-size="20px" fill="#000000" text-anchor="start" style="white-space: pre;" direction="ltr">local (development) environment</text></g><g stroke-linecap="round" transform="translate(393.9285714285715 216.07142857142856) rotate(0 81.78571428571422 53.92857142857139)"><path d="M-1.45 0.45 C53.52 2.52, 103.4 3.14, 162.99 0.93 M0.78 -0.12 C32.99 -0.01, 67.32 0.47, 164.15 -0.48 M163.35 -0.35 C162.65 37.15, 162.31 79.61, 162.84 108.24 M163.91 0.27 C162.97 22.46, 162.95 46.51, 163.81 107.19 M162.86 106.14 C114.12 109.21, 64.53 108.28, -0.95 107.96 M162.62 107.21 C112.63 107.21, 61.9 107.23, -0.18 107.33 M-0.59 107.82 C-1.4 73.41, 2.09 41.46, -0.26 0.69 M0.05 108.58 C0.91 69.44, 1.07 28.99, 0.5 -0.58" stroke="#1864ab" stroke-width="1" fill="none"></path></g><g transform="translate(426.7142857142857 232.49999999999994) rotate(0 49 25)"><text x="49" y="18" font-family="Virgil, Segoe UI Emoji" font-size="20px" fill="#1864ab" text-anchor="middle" style="white-space: pre;" direction="ltr">local</text><text x="49" y="43" font-family="Virgil, Segoe UI Emoji" font-size="20px" fill="#1864ab" text-anchor="middle" style="white-space: pre;" direction="ltr">repository</text></g><g stroke-linecap="round" transform="translate(31.0714285714285 218.21428571428567) rotate(0 82 53.92857142857139)"><path d="M1.72 0.96 C33.42 1.21, 66.66 0.56, 162.14 0.62 M-0.86 -0.75 C41.46 -0.07, 84.25 -0.27, 164.63 -0.63 M163.75 -1.97 C163.29 31.86, 163.15 61.36, 162.32 106.06 M164.37 -0.86 C164.71 25.46, 164.61 50.49, 164.03 108.51 M164.19 109.44 C117.4 107.11, 69.37 106.55, 0.25 108.22 M164.2 108.68 C130.07 107.63, 94.72 106.27, 0.04 107.76 M-1.51 106.17 C2.3 81.3, 0.06 57.19, 1.24 -1.39 M0.16 108.49 C0.26 73.51, 0.44 40.11, -0.89 0.96" stroke="#e67700" stroke-width="1" fill="none"></path></g><g transform="translate(68.85714285714272 247.142857142857) rotate(0 44 25)"><text x="44" y="18" font-family="Virgil, Segoe UI Emoji" font-size="20px" fill="#e67700" text-anchor="middle" style="white-space: pre;" direction="ltr">working </text><text x="44" y="43" font-family="Virgil, Segoe UI Emoji" font-size="20px" fill="#e67700" text-anchor="middle" style="white-space: pre;" direction="ltr">directory</text></g><g stroke-linecap="round"><g transform="translate(473.28571428571416 61.464285714285666) rotate(0 -184.0376574512571 -0.5128296319395318)"><path d="M0.66 0.76 C-60.95 0.34, -307.17 -1.57, -368.74 -1.78 M-0.45 0.11 C-61.75 -0.2, -305.44 0.02, -366.41 -0.4" stroke="#000000" stroke-width="1" fill="none"></path></g></g><g stroke-linecap="round"><g transform="translate(104.78571428571416 59.464285714285666) rotate(0 0.47003725990893486 70.30364720218815)"><path d="M-0.66 -1.09 C-0.64 5.89, -0.89 18.01, -0.52 41.65 C-0.14 65.3, 1.45 124.05, 1.58 140.77 M1.19 0.95 C1.63 7.65, 1.63 16.68, 1.66 40.13 C1.69 63.59, 1.6 124.5, 1.39 141.7" stroke="#e67700" stroke-width="1" fill="none"></path></g><g transform="translate(104.78571428571416 59.464285714285666) rotate(0 0.47003725990893486 70.30364720218815)"><path d="M-10.51 111.75 C-4.36 122.25, -5.02 127.01, 2.15 143.55 M-9.19 113.79 C-7.4 120.15, -3.62 127.37, 2.3 141.46" stroke="#e67700" stroke-width="1" fill="none"></path></g><g transform="translate(104.78571428571416 59.464285714285666) rotate(0 0.47003725990893486 70.30364720218815)"><path d="M10.01 111.88 C11.12 122.23, 5.42 126.97, 2.15 143.55 M11.34 113.91 C8.38 120.09, 7.41 127.29, 2.3 141.46" stroke="#e67700" stroke-width="1" fill="none"></path></g></g><g stroke-linecap="round"><g transform="translate(432.28571428571416 61.464285714285666) rotate(0 -0.5226598831890215 76.20001786091366)"><path d="M0.15 -0.29 C0.25 25.45, 0.16 128.35, -0.08 153.89 M-1.23 -1.49 C-1.16 23.98, -0.39 126.28, -0.55 152.24" stroke="#364fc7" stroke-width="1" fill="none"></path></g><g transform="translate(432.28571428571416 61.464285714285666) rotate(0 -0.5226598831890215 76.20001786091366)"><path d="M-11.34 125.59 C-6.98 130.47, -5.99 138.61, 0.23 154.05 M-10.94 123.69 C-7.59 133.99, -2.74 144.63, -0.7 152.37" stroke="#364fc7" stroke-width="1" fill="none"></path></g><g transform="translate(432.28571428571416 61.464285714285666) rotate(0 -0.5226598831890215 76.20001786091366)"><path d="M9.18 125.56 C8.51 130.47, 4.48 138.62, 0.23 154.05 M9.59 123.66 C5.37 134.11, 2.66 144.76, -0.7 152.37" stroke="#364fc7" stroke-width="1" fill="none"></path></g></g><g transform="translate(170.78571428571416 31.964285714285666) rotate(0 78 12.5)"><text x="0" y="18" font-family="Virgil, Segoe UI Emoji" font-size="20px" fill="#087f5b" text-anchor="start" style="white-space: pre;" direction="ltr">git clone &lt;URL&gt;</text></g></svg>