<svg version="1.1" xmlns="http://www.w3.org/2000/svg" viewBox="0 0 613.6076388888891 62.5" width="613.6076388888891" height="62.5">
  <!-- svg-source:excalidraw -->
  
  <defs>
    <style>
      @font-face {
        font-family: "Virgil";
        src: url("https://excalidraw.com/Virgil.woff2");
      }
      @font-face {
        font-family: "Cascadia";
        src: url("https://excalidraw.com/Cascadia.woff2");
      }
    </style>
  </defs>
  <g stroke-linecap="round" transform="translate(10 10) rotate(0 53.5 21)"><path d="M1.28 -1.57 C30.84 -0.95, 65.5 1.78, 105.76 -0.12 M-0.75 -0.12 C41.22 0.75, 82.95 -0.58, 106.53 0.17 M106.6 0.27 C107.62 15.93, 106.21 32.65, 105.36 43.65 M106.35 0.18 C106.75 10.62, 107.86 18.5, 106.45 42.2 M108.4 42.76 C70.6 43.31, 35.43 41.46, -0.06 41.66 M106.74 41.59 C75.33 41.98, 42.73 42.53, -0.85 41.25 M0.39 40.1 C-0.38 26.89, 0 13.16, 0.73 -1.71 M-0.01 41.92 C0.43 25.39, 0.05 10.11, -0.78 -0.22" stroke="#000000" stroke-width="1" fill="none"></path></g><g transform="translate(22 18.5) rotate(0 41.5 12.5)"><text x="41.5" y="18" font-family="Virgil, Segoe UI Emoji" font-size="20px" fill="#000000" text-anchor="middle" style="white-space: pre;" direction="ltr">a0f8f01</text></g><g stroke-linecap="round"><g transform="translate(161.5 29) rotate(0 -22.080848425598788 0.393606962965265)"><path d="M-0.85 -0.73 C-8.38 -0.33, -36.94 1.22, -44.42 1.41 M0.9 1.51 C-6.8 1.65, -37.71 -0.27, -45.06 -0.23" stroke="#000000" stroke-width="1" fill="none"></path></g><g transform="translate(161.5 29) rotate(0 -22.080848425598788 0.393606962965265)"><path d="M-24.89 -6.26 C-29.99 -6.07, -39.41 -0.52, -44.21 -0.35 M-22.99 -7.4 C-29.13 -6.2, -33.12 -3.31, -46.02 0.57" stroke="#000000" stroke-width="1" fill="none"></path></g><g transform="translate(161.5 29) rotate(0 -22.080848425598788 0.393606962965265)"><path d="M-25.4 9.13 C-30.2 3.72, -39.43 3.67, -44.21 -0.35 M-23.5 7.98 C-29.51 5.73, -33.38 5.16, -46.02 0.57" stroke="#000000" stroke-width="1" fill="none"></path></g></g><g stroke-linecap="round" transform="translate(168 10.5) rotate(0 53.5 21)"><path d="M0.97 1.52 C22.46 0.53, 49.15 1.5, 106.89 -1.51 M-0.18 -0.64 C30.35 -0.56, 62.48 -1.69, 107.81 -0.2 M106.62 0.35 C105.57 14.82, 105.8 26.53, 107.61 40.69 M107.82 -0.75 C106.33 13.55, 107.14 26.84, 107.43 42.7 M105.28 40.99 C70.8 42.11, 34.71 41.69, 0.8 41.47 M106.88 42.1 C78.39 40.77, 52.11 41.03, 0.83 42.19 M-0.2 43.67 C0.85 31.67, 1.6 25.45, -1.94 -0.03 M0.19 41.51 C-1.03 29.5, -1.24 17.85, 0.58 0.16" stroke="#000000" stroke-width="1" fill="none"></path></g><g transform="translate(181.5 19) rotate(0 40 12.5)"><text x="40" y="18" font-family="Virgil, Segoe UI Emoji" font-size="20px" fill="#000000" text-anchor="middle" style="white-space: pre;" direction="ltr">e8f13f4</text></g><g stroke-linecap="round"><g transform="translate(328.02314814814827 30.571906715300543) rotate(0 -24.998954798529326 0.2875833284694238)"><path d="M-0.74 -0.07 C-9.28 0.07, -42.17 1.71, -50.68 1.78 M1.07 -1.15 C-7.59 -1.45, -42.12 -0.46, -51.07 -0.07" stroke="#000000" stroke-width="1" fill="none"></path></g><g transform="translate(328.02314814814827 30.571906715300543) rotate(0 -24.998954798529326 0.2875833284694238)"><path d="M-27.19 -7.98 C-34.5 -6.63, -45.23 -3.39, -51.76 1.31 M-26.9 -8.9 C-34.87 -6.32, -40.89 -4.26, -50.56 -0.18" stroke="#000000" stroke-width="1" fill="none"></path></g><g transform="translate(328.02314814814827 30.571906715300543) rotate(0 -24.998954798529326 0.2875833284694238)"><path d="M-26.58 9.71 C-34.24 4.89, -45.18 1.97, -51.76 1.31 M-26.29 8.79 C-34.32 6.38, -40.51 3.44, -50.56 -0.18" stroke="#000000" stroke-width="1" fill="none"></path></g></g><g stroke-linecap="round" transform="translate(330.25 13.5) rotate(0 53.5 18.5)"><path d="M1.77 0.85 C40.1 -1.44, 80.19 -0.63, 108.38 -0.35 M0.85 -0.96 C26.02 -0.39, 50.56 0.33, 106.89 -0.19 M105.58 0.2 C107.31 10.43, 107.06 22.9, 108.99 38.63 M107.26 0.12 C107.23 9.03, 107.18 15.92, 107.42 36.14 M106.99 36.24 C81.08 36.29, 52.74 37.62, -0.9 36.75 M107.63 36.52 C74.69 36.39, 39.77 35.91, 0.07 36.9 M1.48 37.67 C-2.07 22.79, -0.29 9.78, -1.82 0.38 M-0.99 37.41 C0.88 27.86, -0.38 18.75, -0.33 -0.85" stroke="#000000" stroke-width="1" fill="none"></path></g><g transform="translate(337.75 19.5) rotate(0 46 12.5)"><text x="46" y="18" font-family="Virgil, Segoe UI Emoji" font-size="20px" fill="#000000" text-anchor="middle" style="white-space: pre;" direction="ltr">0b8a494</text></g><g stroke-linecap="round"><g transform="translate(494.38078703703695 30.321906715300543) rotate(0 -25.668332620618344 1.714067339539156)"><path d="M0.31 1.05 C-8.3 1.25, -42.58 1.32, -51.06 1.31 M-0.99 0.56 C-9.75 0.96, -43.36 2.6, -51.65 2.87" stroke="#000000" stroke-width="1" fill="none"></path></g><g transform="translate(494.38078703703695 30.321906715300543) rotate(0 -25.668332620618344 1.714067339539156)"><path d="M-25.97 -5.86 C-36.08 -1.48, -45.03 1.97, -51.03 4.04 M-27.68 -7.88 C-36.11 -4.2, -42.81 -0.01, -51.8 1.98" stroke="#000000" stroke-width="1" fill="none"></path></g><g transform="translate(494.38078703703695 30.321906715300543) rotate(0 -25.668332620618344 1.714067339539156)"><path d="M-25.23 11.83 C-35.61 9.98, -44.82 7.19, -51.03 4.04 M-26.94 9.81 C-35.45 7.94, -42.38 6.58, -51.8 1.98" stroke="#000000" stroke-width="1" fill="none"></path></g></g><g stroke-linecap="round" transform="translate(496.60763888888914 13.25) rotate(0 53.5 18.5)"><path d="M1.14 0.07 C35.01 -1.39, 68.02 -0.32, 108.17 0.28 M-0.89 -0.79 C22.74 -0.03, 46.98 -0.2, 106.11 0.82 M107.82 -0.23 C105.36 11.9, 108.01 19.59, 107.91 38.48 M106.97 0.46 C107.81 10.99, 108.19 23.13, 107.98 36.72 M107.21 35.3 C73.46 34.6, 43.31 37.06, 1.52 35.15 M107.07 37.89 C77.31 37.99, 48.07 37.26, 0.5 37.78 M1.13 36.57 C-1.51 22.84, -0.04 7.91, 0.86 1.48 M0.43 36.02 C0.84 23.7, -0.03 12.89, -0.61 -0.33" stroke="#000000" stroke-width="1" fill="none"></path></g><g transform="translate(505.10763888888914 19.25) rotate(0 45 12.5)"><text x="45" y="18" font-family="Virgil, Segoe UI Emoji" font-size="20px" fill="#000000" text-anchor="middle" style="white-space: pre;" direction="ltr">9a98eb2</text></g></svg>