<svg version="1.1" xmlns="http://www.w3.org/2000/svg" viewBox="0 0 608.5714285714284 426.64285714285734" width="608.5714285714284" height="426.64285714285734">
  <!-- svg-source:excalidraw -->
  
  <defs>
    <style class="style-fonts">
      @font-face {
        font-family: "Virgil";
        src: url("https://excalidraw.com/Virgil.woff2");
      }
      @font-face {
        font-family: "Cascadia";
        src: url("https://excalidraw.com/Cascadia.woff2");
      }
    </style>
  </defs>
  <g stroke-linecap="round" transform="translate(10 37.42857142857156) rotate(0 294.2857142857142 189.6071428571429)"><path d="M0.47 -0.66 C209.1 -1.24, 418.58 -0.61, 587.93 0.56 M-0.05 -0.31 C160.33 0.68, 320.56 0.73, 588.9 0.09 M589.5 -0.91 C586.52 85.18, 586.88 170.46, 588.91 378.28 M588.01 -0.42 C588.81 85.45, 588.28 171.4, 588.76 379.28 M589 379.38 C438.97 377.45, 290.31 376.98, 0.07 379.13 M588.25 379.14 C384.45 378.49, 180.2 378.69, -0.02 378.91 M-0.79 378.83 C2.51 267.49, 2.26 155.3, -0.57 0.12 M-0.18 379.01 C1.65 274.68, 1.56 170.06, -0.34 0.56" stroke="#000000" stroke-width="1" fill="none"></path></g><g transform="translate(14.357142857143117 10) rotate(0 44.5 12.5)"><text x="0" y="18" font-family="Virgil, Segoe UI Emoji" font-size="20px" fill="#ff0000" text-anchor="start" style="white-space: pre;" direction="ltr">container</text></g><g stroke-linecap="round" transform="translate(20.285714285714675 247.39285714285734) rotate(0 283.5 33.5)"><path d="M0.12 -0.07 C198.94 2.42, 395.99 2.43, 566.78 0.61 M-0.1 0.08 C155.27 1.89, 311.5 1.86, 566.7 -0.29 M566.34 -0.9 C567.47 17.69, 568.08 37.08, 565.52 66.77 M567.84 -0.41 C566.32 14.46, 566.69 29.02, 566.53 67.55 M566.48 66.76 C433.59 66.76, 300.42 67.38, 0.37 67.12 M566.99 67.09 C416.52 66.88, 266.32 66.28, -0.02 66.7 M1.33 66.49 C1.36 43.49, -0.51 23.77, -0.49 -1.53 M-0.16 66.99 C-0.11 49.28, -0.36 32.85, -0.03 -0.83" stroke="#000000" stroke-width="1" fill="none"></path></g><g transform="translate(249.28571428571468 268.39285714285734) rotate(0 54.5 12.5)"><text x="54.5" y="18" font-family="Virgil, Segoe UI Emoji" font-size="20px" fill="#000000" text-anchor="middle" style="white-space: pre;" direction="ltr">host kernel</text></g><g stroke-linecap="round" transform="translate(410.58928571428623 167.80952380952385) rotate(0 89.5 34)"><path d="M1.56 1.4 C37.38 1.56, 77.42 1.68, 178.49 -0.23 M-0.77 0.31 C40.58 -0.12, 78.76 -1.08, 178.88 0.77 M178.95 -1.62 C179.34 13.69, 177.29 30.24, 177.31 66.13 M178.95 0.01 C179.89 15.74, 179.1 31.81, 178.35 68.53 M178.78 66.23 C121.77 67.25, 65.14 67.77, -0.7 66.38 M178.62 68.73 C128.51 67.65, 78.06 67.66, 0.24 67.34 M0.91 66.21 C-1.4 49.99, -0.94 30.06, -0.76 -0.6 M-0.31 67.82 C-0.45 50.88, 0.08 31.06, -0.69 -0.01" stroke="#1864ab" stroke-width="1" fill="none"></path></g><g transform="translate(437.08928571428623 189.30952380952385) rotate(0 63 12.5)"><text x="63" y="18" font-family="Virgil, Segoe UI Emoji" font-size="20px" fill="#1864ab" text-anchor="middle" style="white-space: pre;" direction="ltr">host process</text></g><g stroke-linecap="round" transform="translate(21.589285714285325 326.80952380952385) rotate(0 283.5 33.5)"><path d="M-0.64 0.56 C164.99 -0.98, 330.21 -1.68, 566.38 -0.19 M0.33 0.09 C181.17 -0.98, 362.88 -0.38, 566.7 -0.13 M567.56 -1.55 C565.5 16.84, 565.3 32.28, 565.6 68.67 M567.32 0.12 C566.5 17.89, 566.32 35.2, 567.21 66.36 M567.07 66.91 C414.14 65.12, 260.25 64.35, -0.15 66.97 M566.98 66.69 C383.82 68.36, 200.78 68.39, -0.13 67.27 M-0.95 67.19 C-0.79 47.09, -1.07 29.64, -0.69 -0.32 M-0.56 67.93 C0.18 46.14, -0.48 26.93, -0.82 -0.12" stroke="#000000" stroke-width="1" fill="none"></path></g><g transform="translate(234.08928571428532 347.80952380952385) rotate(0 71 12.5)"><text x="71" y="18" font-family="Virgil, Segoe UI Emoji" font-size="20px" fill="#000000" text-anchor="middle" style="white-space: pre;" direction="ltr">host hardware</text></g><g stroke-linecap="round" transform="translate(27.28571428571422 170.82142857142844) rotate(0 185.5 30)"><path d="M-0.34 0.94 C136.96 -1.74, 273.59 -1.9, 371.25 -0.94 M-0.45 -0.45 C122.57 -0.07, 244.82 -0.75, 370.72 -0.02 M369.52 -0.23 C369.48 11.28, 369.76 27.97, 370.17 59.9 M370.53 0.55 C370.54 18.57, 371.4 35.43, 370.7 59.89 M371.58 60.19 C292.1 58.76, 213.83 59.71, 0.28 59.53 M370.96 59.54 C232.75 57.85, 94.01 58.67, -0.16 60.28 M-0.49 58.47 C-0.48 46.78, -0.4 34.45, -0.02 -0.62 M-0.03 59.17 C-0.36 43.06, -0.49 26.02, -0.54 -0.05" stroke="#d9480f" stroke-width="1" fill="none"></path></g><g transform="translate(177.78571428571422 188.32142857142844) rotate(0 35 12.5)"><text x="35" y="18" font-family="Virgil, Segoe UI Emoji" font-size="20px" fill="#d9480f" text-anchor="middle" style="white-space: pre;" direction="ltr">runtime</text></g><g stroke-linecap="round" transform="translate(32.785714285713766 92.32142857142867) rotate(0 89.5 34)"><path d="M-1.56 -0.48 C67.74 -1.33, 135.3 1.87, 179.47 -1.48 M-0.76 -0.33 C40.25 -1.41, 80.6 -1.1, 178.23 -0.74 M177.6 1.67 C177.6 19.51, 178.44 39.86, 179.23 67.07 M179.21 -0.64 C178.26 24.05, 177.67 48.4, 178.89 68.47 M178.64 67.93 C123.01 65.78, 67.57 66.44, -1.53 67.88 M178.68 68.67 C138.49 67.28, 97.6 66.34, 0.1 67.76 M-0.69 67.68 C0.24 52.19, -0.1 36.5, 1.86 -0.06 M-0.82 67.88 C-0.07 53.16, 1.18 37.79, 0.66 0.86" stroke="#1864ab" stroke-width="1" fill="none"></path></g><g transform="translate(53.285714285713766 113.82142857142867) rotate(0 69 12.5)"><text x="69" y="18" font-family="Virgil, Segoe UI Emoji" font-size="20px" fill="#1864ab" text-anchor="middle" style="white-space: pre;" direction="ltr">guest process</text></g><g stroke-linecap="round" transform="translate(222.28571428571468 93.82142857142867) rotate(0 89.5 34)"><path d="M0.4 -1.54 C52.28 2.1, 103.81 -1.05, 177.55 -0.24 M-0.45 -0.03 C66.72 0.88, 134.28 -0.15, 178.88 -0.84 M178.17 -0.1 C178.54 14.67, 178.75 27.12, 180.11 66.7 M178.7 -0.11 C178.26 24.12, 179.03 48.54, 179.15 67.65 M179.46 67.23 C141.26 67.83, 99.07 67.82, -1.5 68.48 M178.74 68.46 C136.21 68.72, 95.31 68.95, -0.77 67.62 M-0.02 67.38 C-0.12 48.54, 2.1 31.25, -1.65 -1.38 M-0.54 67.95 C1.27 47.05, 1.22 28.24, 0.71 0.28" stroke="#1864ab" stroke-width="1" fill="none"></path></g><g transform="translate(242.78571428571468 115.32142857142867) rotate(0 69 12.5)"><text x="69" y="18" font-family="Virgil, Segoe UI Emoji" font-size="20px" fill="#1864ab" text-anchor="middle" style="white-space: pre;" direction="ltr">guest process</text></g><g stroke-linecap="round" transform="translate(19.78571428571422 46.32142857142867) rotate(0 193.5 95.75)"><path d="M0.72 1.96 C107.31 1.76, 211.8 3.22, 388.82 -1.79 M383.77 1.13 C382.18 48.14, 384.81 98.82, 383.25 188.69 M387.01 192.25 C238.8 190.17, 91.35 189.75, 1.26 191.99 M-3.54 191.83 C0.71 148.26, 1.75 99.89, -3.24 -0.73" stroke="#087f5b" stroke-width="4.5" fill="none" stroke-dasharray="8 12"></path></g><g transform="translate(38.785714285713766 51.32142857142867) rotate(0 95.5 12.5)"><text x="0" y="18" font-family="Virgil, Segoe UI Emoji" font-size="20px" fill="#087f5b" text-anchor="start" style="white-space: pre;" direction="ltr">isolated namespace</text></g></svg>