<svg version="1.1" xmlns="http://www.w3.org/2000/svg" viewBox="0 0 608.5714285714284 332.6428571428571" width="608.5714285714284" height="332.6428571428571">
  <!-- svg-source:excalidraw -->
  
  <defs>
    <style class="style-fonts">
      @font-face {
        font-family: "Virgil";
        src: url("https://excalidraw.com/Virgil.woff2");
      }
      @font-face {
        font-family: "Cascadia";
        src: url("https://excalidraw.com/Cascadia.woff2");
      }
    </style>
  </defs>
  <g stroke-linecap="round" transform="translate(10 35.42857142857133) rotate(0 294.2857142857142 143.6071428571429)"><path d="M-0.62 0.25 C191.38 1.74, 381.96 1.97, 588.37 -0.28 M0.11 -0.1 C211.98 -0.9, 424.31 -1.22, 588.85 -0.37 M589.76 0.39 C590.55 67.16, 588.43 132.66, 588.01 287.36 M588.62 0.69 C590.49 87.46, 590.38 174.6, 589.19 287.72 M588.4 287.43 C367.78 286.02, 145.83 285.78, 0.46 286.5 M588.8 287.55 C450.91 289.07, 313.6 289.69, -0.15 286.95 M1.22 288.1 C-0.14 179.13, 0.39 70.38, 0.19 -1.16 M-0.47 287.62 C-1.14 200.54, -1.25 115.22, -0.41 -0.01" stroke="#000000" stroke-width="1" fill="none"></path></g><g transform="translate(17.85714285714289 10) rotate(0 77.5 12.5)"><text x="0" y="18" font-family="Virgil, Segoe UI Emoji" font-size="20px" fill="#ff0000" text-anchor="start" style="white-space: pre;" direction="ltr">physical machine</text></g><g stroke-linecap="round" transform="translate(21.07142857142844 73.64285714285711) rotate(0 89.5 34)"><path d="M-0.87 1.58 C58.71 -1.59, 119.62 -1.47, 179.93 0.56 M0.54 -0.31 C50.02 -1.78, 97.96 -0.52, 179.56 0.79 M177.87 -0.48 C178.83 22.35, 179.66 46.25, 179.76 68.14 M178.62 -0.42 C179.66 27.28, 179.61 54.07, 178.5 67.79 M179.08 67.34 C121.59 66.17, 60.54 66.38, 1.76 69.15 M179.76 68.99 C109.74 66.35, 42.04 66.45, 0.75 68.81 M-1.13 69.57 C0.88 42.06, 0.62 20.72, -0.06 -1.25 M0.56 68.36 C-1.02 43.9, -1.42 19.81, 0.69 -0.75" stroke="#1864ab" stroke-width="1" fill="none"></path></g><g transform="translate(47.57142857142844 95.14285714285711) rotate(0 63 12.5)"><text x="63" y="18" font-family="Virgil, Segoe UI Emoji" font-size="20px" fill="#1864ab" text-anchor="middle" style="white-space: pre;" direction="ltr">host process</text></g><g stroke-linecap="round" transform="translate(20.28571428571422 153.3928571428571) rotate(0 283.5 33.5)"><path d="M-0.13 0.38 C196.87 0.31, 393.45 -0.19, 566.45 0.26 M0.33 0.17 C201.42 -0.68, 403.15 -0.55, 567.02 0.39 M566.54 0.01 C566.28 21.81, 568.68 46.63, 568.52 68.69 M567.75 -0.03 C566.9 16.44, 567.44 32.65, 566.34 66.22 M566.96 66.56 C347.48 69.71, 126.45 68.39, 0.64 66.54 M566.63 67.25 C354.31 68.65, 142.12 68.03, 0 67.31 M1.39 65.58 C1.53 47.81, -0.68 27.16, -1.9 -0.01 M-0.76 67.79 C-0.01 43.1, -0.37 18.51, 0.37 0.34" stroke="#000000" stroke-width="1" fill="none"></path></g><g transform="translate(249.28571428571422 174.3928571428571) rotate(0 54.5 12.5)"><text x="54.5" y="18" font-family="Virgil, Segoe UI Emoji" font-size="20px" fill="#000000" text-anchor="middle" style="white-space: pre;" direction="ltr">host kernel</text></g><g stroke-linecap="round" transform="translate(216.08928571428578 73.30952380952363) rotate(0 89.5 34)"><path d="M1.19 0.16 C38.97 1.42, 76.96 0.58, 177.59 1.73 M-0.48 0.51 C39.57 -0.71, 77.31 -2.56, 178.8 -0.07 M177.07 -1.73 C180.88 16.71, 180.32 37.29, 178 69.02 M178 -0.67 C179.07 24.73, 179.77 49.69, 179.41 68.74 M178 68.24 C126.76 68.99, 70.46 69.28, -0.56 69.67 M178.44 68.82 C139.02 67.23, 98.75 67.57, 0.01 67.06 M0.67 67.47 C-1.91 54.77, -1.13 39.77, 0.18 -1.01 M0.95 68.42 C-0.46 50.77, 0.45 32.83, -0.8 -0.88" stroke="#1864ab" stroke-width="1" fill="none"></path></g><g transform="translate(242.58928571428578 94.80952380952363) rotate(0 63 12.5)"><text x="63" y="18" font-family="Virgil, Segoe UI Emoji" font-size="20px" fill="#1864ab" text-anchor="middle" style="white-space: pre;" direction="ltr">host process</text></g><g stroke-linecap="round" transform="translate(410.5892857142858 73.80952380952363) rotate(0 89.5 34)"><path d="M-0.51 0.14 C63.43 1.76, 129.99 -0.59, 180.37 -1.86 M0.08 -0.13 C47.93 -0.18, 97.19 0.28, 178.28 -0.51 M178.67 1.33 C178.44 24.27, 178.31 45.22, 180.47 66.94 M179.05 0.61 C178.13 20.19, 178.98 39.58, 179.36 68.71 M177.02 69.95 C117.68 70.28, 55.75 67.36, 0.24 68.65 M179.91 68.12 C141.56 68.44, 105.56 67.49, 0.86 68.79 M-1.47 68.62 C2.25 51.37, 2.58 30.62, -1.72 -1.21 M-0.12 68.48 C0.09 51.48, -0.21 35.47, -0.04 -0.89" stroke="#1864ab" stroke-width="1" fill="none"></path></g><g transform="translate(437.0892857142858 95.30952380952363) rotate(0 63 12.5)"><text x="63" y="18" font-family="Virgil, Segoe UI Emoji" font-size="20px" fill="#1864ab" text-anchor="middle" style="white-space: pre;" direction="ltr">host process</text></g><g stroke-linecap="round" transform="translate(21.589285714285325 232.80952380952363) rotate(0 283.5 33.5)"><path d="M-0.47 -0.53 C211.58 1.11, 422.09 1.53, 567.7 -0.39 M-0.32 -0.39 C162.52 -1.75, 325.76 -1.52, 566.94 0.27 M567.5 0.09 C564.87 21.81, 566.04 44.71, 565.57 65.27 M567.77 0.75 C566.7 16.33, 567.33 31.91, 567.52 66.03 M567.5 66.74 C340.53 66.36, 113.36 67.37, -0.09 67.22 M566.88 67.4 C363.5 68.39, 159.8 68.41, -0.23 66.76 M-1.38 65.04 C-0.47 44.21, -0.23 25.48, 0.46 -0.63 M-0.83 66.6 C-0.51 45.79, -0.5 23.45, -0.73 -0.61" stroke="#000000" stroke-width="1" fill="none"></path></g><g transform="translate(234.08928571428532 253.80952380952363) rotate(0 71 12.5)"><text x="71" y="18" font-family="Virgil, Segoe UI Emoji" font-size="20px" fill="#000000" text-anchor="middle" style="white-space: pre;" direction="ltr">host hardware</text></g></svg>