<svg version="1.1" xmlns="http://www.w3.org/2000/svg" viewBox="0 0 608.5714285714284 483.64285714285734" width="608.5714285714284" height="483.64285714285734">
  <!-- svg-source:excalidraw -->
  
  <defs>
    <style class="style-fonts">
      @font-face {
        font-family: "Virgil";
        src: url("https://excalidraw.com/Virgil.woff2");
      }
      @font-face {
        font-family: "Cascadia";
        src: url("https://excalidraw.com/Cascadia.woff2");
      }
    </style>
  </defs>
  <g stroke-linecap="round" transform="translate(10 43.92857142857156) rotate(0 294.2857142857142 214.8571428571429)"><path d="M-0.39 0.76 C168.99 -0.68, 338.27 -0.79, 588.25 -0.15 M-0.28 0.09 C171.79 -1.37, 343.16 -1.88, 588.75 0.26 M588.3 0.58 C589.17 129.09, 588.98 259.62, 589.37 429.26 M589.08 -0.5 C589.76 109.16, 589.82 217.34, 588.51 429.36 M588.38 429.46 C442.34 429.99, 295.04 429.94, -0.14 430.5 M588.78 429.5 C393.42 429.12, 197.87 429.2, -0.14 429.93 M0.3 429.88 C1.01 271.37, 0.7 112.37, 0.26 -0.12 M0.11 429.37 C1.09 341.84, 1.53 254.56, -0.27 -0.04" stroke="#000000" stroke-width="1" fill="none"></path></g><g transform="translate(16.357142857143117 10) rotate(0 65 12.5)"><text x="0" y="18" font-family="Virgil, Segoe UI Emoji" font-size="20px" fill="#ff0000" text-anchor="start" style="white-space: pre;" direction="ltr">virtualisation</text></g><g stroke-linecap="round" transform="translate(20.285714285714675 304.39285714285734) rotate(0 283.5 33.5)"><path d="M-0.62 0.47 C223.35 -1.81, 447.27 -1.87, 567.57 -0.55 M0.01 -0.18 C182.87 -1.58, 365.39 -1.83, 567.04 -0.11 M567.72 0.39 C568.9 22.97, 566.43 49.13, 565.17 68.95 M566.31 -0.65 C566.33 12.88, 565.94 26.92, 567.34 66.76 M566.51 66.44 C415.03 66.33, 263.6 64.75, -0.24 67.41 M567.19 67.18 C427.2 67.83, 287.95 67.49, 0.06 67.12 M0.06 65.43 C0.28 45.58, -2.15 23.37, 0.2 0.41 M0.29 66.67 C-0.16 51.33, 1.19 35.41, 0.74 0.92" stroke="#000000" stroke-width="1" fill="none"></path></g><g transform="translate(249.28571428571468 325.39285714285734) rotate(0 54.5 12.5)"><text x="54.5" y="18" font-family="Virgil, Segoe UI Emoji" font-size="20px" fill="#000000" text-anchor="middle" style="white-space: pre;" direction="ltr">host kernel</text></g><g stroke-linecap="round" transform="translate(410.58928571428623 224.80952380952385) rotate(0 89.5 34)"><path d="M-0.17 -0.53 C65.72 -1.03, 129 1.44, 180.62 0.07 M0.02 0.02 C45.58 -1.42, 91.54 -0.61, 178.41 0.36 M178.07 1.45 C177.69 23.68, 177.57 41.84, 180.27 66.62 M178.49 -0.21 C179.25 15.78, 178.59 32.39, 178.36 67.39 M179.64 66.01 C137.34 70.79, 95.79 71.23, 0.54 68.96 M179.68 67.7 C117.25 69.26, 55.37 69.3, -0.07 68.03 M-1.93 66.76 C0.03 53.35, -1.52 36.78, -1.45 0.58 M0.82 67.59 C1.09 50.77, 0.06 31.03, -0.22 -0.06" stroke="#1864ab" stroke-width="1" fill="none"></path></g><g transform="translate(437.08928571428623 246.30952380952385) rotate(0 63 12.5)"><text x="63" y="18" font-family="Virgil, Segoe UI Emoji" font-size="20px" fill="#1864ab" text-anchor="middle" style="white-space: pre;" direction="ltr">host process</text></g><g stroke-linecap="round" transform="translate(21.589285714285325 383.80952380952385) rotate(0 283.5 33.5)"><path d="M0.57 -0.55 C159.36 1.04, 319.01 0.63, 566.63 0.35 M0.04 -0.11 C206.81 0.18, 412.93 0.1, 567.08 0.31 M565.17 1.95 C564.74 15.55, 567.95 32.96, 565.71 66.75 M567.34 -0.24 C566.34 15.85, 566.02 30.36, 566.29 66.82 M566.76 67.41 C340.6 65.33, 115.28 65.13, 0.37 66.71 M567.06 67.12 C366.31 66.45, 165.46 66.33, -0.31 67.1 M0.2 67.41 C-0.7 46.55, -0.81 28.89, -0.66 -1.06 M0.74 67.92 C-0.84 46.8, -0.76 27.86, 0.11 -0.03" stroke="#000000" stroke-width="1" fill="none"></path></g><g transform="translate(234.08928571428532 404.80952380952385) rotate(0 71 12.5)"><text x="71" y="18" font-family="Virgil, Segoe UI Emoji" font-size="20px" fill="#000000" text-anchor="middle" style="white-space: pre;" direction="ltr">host hardware</text></g><g stroke-linecap="round" transform="translate(27.285714285714448 227.82142857142867) rotate(0 185.5 30)"><path d="M-0.49 -0.73 C111.35 1.29, 221.67 1.12, 370.64 1.21 M-0.33 -0.4 C119.19 -1.49, 238.06 -1.18, 370.51 0.54 M369.8 0.24 C370.85 22.77, 369.17 45.2, 369.48 59.08 M371.6 0.64 C370.86 16.52, 370.37 30.67, 371.39 60.51 M371.02 60.54 C269.77 59.39, 167.91 60.66, -0.91 59.71 M371.33 60.48 C283.17 60.01, 194.41 60.1, -0.16 59.7 M-0.02 59.74 C1.37 46.32, 1.69 29.59, 0.23 0.24 M0.22 59.38 C0.13 41.64, 0.46 23.7, 0.67 0.29" stroke="#d9480f" stroke-width="1" fill="none"></path></g><g transform="translate(165.28571428571445 245.32142857142867) rotate(0 47.5 12.5)"><text x="47.5" y="18" font-family="Virgil, Segoe UI Emoji" font-size="20px" fill="#d9480f" text-anchor="middle" style="white-space: pre;" direction="ltr">hypervisor</text></g><g stroke-linecap="round" transform="translate(30.285714285714448 155.82142857142867) rotate(0 183.5 30)"><path d="M-0.67 1.17 C144 0.73, 288.17 0.87, 366.55 -0.88 M-0.51 0.07 C136.69 1.99, 271.76 2.23, 367.61 0.55 M368.17 -1.46 C367.82 22.14, 368.29 43.27, 365.6 61.07 M367.92 -0.82 C367.38 14.52, 367.53 27.19, 367.13 59.42 M368.03 61.23 C238.27 58.07, 108.54 59, -0.79 60.65 M366.46 59.39 C244.94 61.27, 121.89 61.23, -0.28 60.42 M0.36 58.89 C1.65 43.57, -0.78 25.13, -0.44 -0.23 M-0.53 60.02 C0.55 37.35, 0.95 16.17, 0.69 -0.02" stroke="#d9480f" stroke-width="1" fill="none"></path></g><g transform="translate(153.78571428571445 173.32142857142867) rotate(0 60 12.5)"><text x="60" y="18" font-family="Virgil, Segoe UI Emoji" font-size="20px" fill="#d9480f" text-anchor="middle" style="white-space: pre;" direction="ltr">guest kernel</text></g><g stroke-linecap="round" transform="translate(26.28571428571422 71.82142857142867) rotate(0 89.5 34)"><path d="M-0.69 -1.85 C39.29 -0.37, 78.67 -1.78, 178.34 -1.72 M0.29 -0.49 C48.8 0.94, 97.06 1.32, 178.91 -0.9 M180.99 0.07 C179.79 20.16, 178.38 38.38, 178.42 68.41 M179.29 -0.45 C178.79 15.08, 179.52 31.85, 178.44 67.65 M180.26 69.62 C135.01 69.32, 89.76 66.8, 0.54 68.98 M179.61 67.42 C129.77 69.81, 80.79 68.75, -0.85 68.91 M-0.03 68.59 C1.46 50.97, -2.08 39.09, 1.45 0.38 M0.46 68.93 C-0.51 52.7, -0.72 35.73, 0.05 -0.35" stroke="#1864ab" stroke-width="1" fill="none"></path></g><g transform="translate(46.78571428571422 93.32142857142867) rotate(0 69 12.5)"><text x="69" y="18" font-family="Virgil, Segoe UI Emoji" font-size="20px" fill="#1864ab" text-anchor="middle" style="white-space: pre;" direction="ltr">guest process</text></g><g stroke-linecap="round" transform="translate(219.28571428571468 73.32142857142867) rotate(0 89.5 34)"><path d="M0.85 1.24 C40.82 -2.99, 81.84 -2.86, 179.23 1.71 M-0.17 0.65 C58.07 -2.19, 117.76 -0.35, 179.95 -0.01 M177.37 -0.17 C179.22 17.47, 179.19 31.98, 180.72 68.91 M179.11 0.85 C178.68 25.19, 177.64 48.26, 178.76 67.83 M179.02 66.1 C119.91 69.25, 56.65 66.18, -1.62 69.54 M178.66 68.74 C132.46 67.81, 88.24 69.39, 0.66 68.54 M-0.49 68.53 C-2.09 54.09, -0.94 38.94, -1.18 -0.38 M0.53 68.57 C0.23 40.45, -0.31 13.16, -0.01 0.81" stroke="#1864ab" stroke-width="1" fill="none"></path></g><g transform="translate(239.78571428571468 94.82142857142867) rotate(0 69 12.5)"><text x="69" y="18" font-family="Virgil, Segoe UI Emoji" font-size="20px" fill="#1864ab" text-anchor="middle" style="white-space: pre;" direction="ltr">guest process</text></g><g stroke-linecap="round" transform="translate(19.785714285714448 57.32142857142867) rotate(0 193.5 118.75)"><path d="M1.3 -0.83 C149.49 3.72, 298.14 4.79, 385.55 0.87 M385.43 -2.5 C385.92 90.87, 384.31 184.22, 388.15 237.7 M384.9 238.55 C261.64 242.51, 134.19 244.23, 0.16 237.16 M3.07 236.72 C-1.18 161.43, -1.84 89.02, 3.13 0.5" stroke="#087f5b" stroke-width="4.5" fill="none" stroke-dasharray="8 12"></path></g></svg>