<svg version="1.1" xmlns="http://www.w3.org/2000/svg" viewBox="0 0 649.2857142857142 428.21428571428567" width="649.2857142857142" height="428.21428571428567">
  <!-- svg-source:excalidraw -->
  
  <defs>
    <style>
      @font-face {
        font-family: "Virgil";
        src: url("https://excalidraw.com/Virgil.woff2");
      }
      @font-face {
        font-family: "Cascadia";
        src: url("https://excalidraw.com/Cascadia.woff2");
      }
    </style>
  </defs>
  <g stroke-linecap="round" transform="translate(474.99999999999994 10) rotate(0 82 35.5)"><path d="M0.69 1.04 C62.28 -1.3, 123.92 -0.52, 164.58 1.45 M0.2 -0.26 C50.87 -1.19, 100.92 -0.94, 164.38 0.39 M162.49 -0.25 C164.47 27.33, 164.47 55.58, 162.96 69.44 M164.72 -0.08 C163.6 22.01, 164.67 44.27, 164.31 70.08 M164.61 71.64 C125.11 73.17, 85.92 69.74, -0.91 72.36 M164.69 71.74 C109 69.15, 53.82 69.62, -0.46 70.26 M0.2 71.66 C-0.21 46.19, -0.35 24.1, 1.93 -1.31 M0.55 71.13 C0.77 54.45, -0.6 36.97, -0.68 -0.1" stroke="#000000" stroke-width="1" fill="none"></path></g><g transform="translate(507.99999999999994 20.5) rotate(0 49 25)"><text x="49" y="18" font-family="Virgil, Segoe UI Emoji" font-size="20px" fill="#000000" text-anchor="middle" style="white-space: pre;" direction="ltr">remote </text><text x="49" y="43" font-family="Virgil, Segoe UI Emoji" font-size="20px" fill="#000000" text-anchor="middle" style="white-space: pre;" direction="ltr">repository</text></g><g stroke-linecap="round" transform="translate(10 179.9999999999999) rotate(0 294.2857142857142 119.10714285714289)"><path d="M0.08 -0.61 C168.67 -1.52, 337.75 -0.65, 588.62 -0.55 M0.24 0.07 C225.66 0.78, 451.18 0.77, 588.89 0.11 M588.8 0.33 C587.3 58.36, 586.2 112.54, 588.78 237.93 M588.34 -0.14 C590.67 82, 590.26 163.39, 588.07 238.3 M588.74 238.94 C399.3 238.32, 209.23 239.51, 0.31 237.81 M588.8 238.05 C464.06 239.98, 338.62 239.66, 0.1 238.11 M-0.34 236.81 C-0.65 179.11, 1.41 119.98, -0.96 -0.54 M0.45 238.78 C-1.79 153.2, -1.67 67.38, -0.47 0.48" stroke="#000000" stroke-width="1" fill="none"></path></g><g transform="translate(17.857142857142833 154.57142857142856) rotate(0 152.5 12.5)"><text x="0" y="18" font-family="Virgil, Segoe UI Emoji" font-size="20px" fill="#000000" text-anchor="start" style="white-space: pre;" direction="ltr">local (development) environment</text></g><g stroke-linecap="round" transform="translate(414.9285714285715 216.07142857142856) rotate(0 82 34.5)"><path d="M-0.23 -0.74 C58.32 2.7, 115.62 -0.14, 165.66 0.4 M0.37 0.42 C45.3 0.11, 90.63 0, 163.39 -0.75 M164.27 1.71 C163.05 18.28, 164.34 39.33, 164.89 70.44 M164.79 -0.09 C164.12 19.25, 163.21 40.46, 164.22 69.3 M164.54 67.38 C108.68 71.85, 55.95 69.48, -1.76 70.39 M164.94 69.06 C102.2 67.59, 41.57 68.06, -0.54 69.1 M-0.54 68.35 C2.07 44.73, -1.01 22.43, 1.17 1.11 M-0.83 69.43 C-1.05 47.31, -0.94 26.38, -0.08 -0.41" stroke="#000000" stroke-width="1" fill="none"></path></g><g transform="translate(447.9285714285715 225.57142857142856) rotate(0 49 25)"><text x="49" y="18" font-family="Virgil, Segoe UI Emoji" font-size="20px" fill="#000000" text-anchor="middle" style="white-space: pre;" direction="ltr">local</text><text x="49" y="43" font-family="Virgil, Segoe UI Emoji" font-size="20px" fill="#000000" text-anchor="middle" style="white-space: pre;" direction="ltr">repository</text></g><g stroke-linecap="round" transform="translate(21.0714285714285 218.21428571428567) rotate(0 89.5 34)"><path d="M0.58 1.45 C40.21 -0.72, 81.82 1.06, 178.48 1.19 M0.38 0.39 C57.52 -0.47, 112.83 -1.5, 178.88 0.14 M177.96 -1.56 C179.34 21.4, 179.98 44.92, 178.85 67.44 M179.31 -0.92 C178.94 19.34, 179.76 38.78, 179.32 68.21 M178.09 69.36 C109.84 65.55, 37.38 67.94, 1.48 69.12 M178.54 67.26 C132.89 67.83, 85.73 68.2, 0.33 67.8 M1.93 66.69 C-0.96 52.67, 1.35 39.74, 0.26 1.07 M-0.68 67.9 C0 43.59, 0.48 17.64, -0.6 0.46" stroke="#000000" stroke-width="1" fill="none"></path></g><g transform="translate(29.0714285714285 239.71428571428567) rotate(0 81.5 12.5)"><text x="81.5" y="18" font-family="Virgil, Segoe UI Emoji" font-size="20px" fill="#000000" text-anchor="middle" style="white-space: pre;" direction="ltr">working directory</text></g><g stroke-linecap="round" transform="translate(217.99999999999994 218.03571428571433) rotate(0 90 33.5)"><path d="M-1.39 1.66 C59.58 -0.64, 119.56 0.22, 180.74 0.84 M0.28 -0.61 C60.08 -1.55, 121.8 -1.23, 180.14 0.86 M179.66 0.89 C180.91 16.46, 178.92 32.88, 181.59 66.82 M180.11 0.22 C179.69 22.51, 179.59 45.29, 180.27 66.19 M179 65.24 C135.58 69.18, 89.49 66.88, 1.88 67.12 M179.73 66.46 C134.31 67.79, 88.23 66.62, -0.27 66.68 M-0.65 68.17 C1.55 40.71, 1.51 15.24, -1.65 0.86 M0.57 66.92 C-0.34 50.88, 0.53 35.03, -0.27 -0.99" stroke="#862e9c" stroke-width="1" fill="none"></path></g><g transform="translate(244.49999999999994 239.03571428571433) rotate(0 63.5 12.5)"><text x="63.5" y="18" font-family="Virgil, Segoe UI Emoji" font-size="20px" fill="#862e9c" text-anchor="middle" style="white-space: pre;" direction="ltr">staging area</text></g><g stroke-linecap="round" transform="translate(474.28571428571416 80.96428571428567) rotate(0 82.5 30)"><path d="M0.4 -0.52 C51.77 -1.03, 101.9 -0.53, 165.76 0.78 M-0.75 -0.12 C62.73 1.2, 125.32 1.86, 164.48 -0.78 M166.44 -0.15 C164.34 18.4, 166.49 37.3, 165.62 58.16 M165.3 0.32 C165.27 15.29, 165.33 27.95, 164.55 60.68 M166.39 61.48 C110.22 57.73, 55.09 58.67, -0.91 58.52 M165.1 60.33 C111.05 58.27, 57.24 58.78, 0.96 59.34 M1.11 60.26 C1.27 46.79, -1.46 31.74, -1.37 -0.2 M-0.41 59.4 C0.12 44.48, -0.62 29.8, -0.34 0.4" stroke="#000000" stroke-width="1" fill="none"></path></g><g transform="translate(499.28571428571416 85.96428571428567) rotate(0 57.5 25)"><text x="57.5" y="18" font-family="Virgil, Segoe UI Emoji" font-size="20px" fill="#000000" text-anchor="middle" style="white-space: pre;" direction="ltr">README.md</text><text x="57.5" y="43" font-family="Virgil, Segoe UI Emoji" font-size="20px" fill="#000000" text-anchor="middle" style="white-space: pre;" direction="ltr">python_ex1</text></g><g stroke-linecap="round" transform="translate(415.28571428571416 282.96428571428567) rotate(0 82.5 30)"><path d="M1.19 0.34 C63.96 1.27, 127.2 1.21, 166.59 0.55 M0.14 0.2 C39.56 1.06, 78.33 -0.57, 165.12 -0.17 M164.44 -0.34 C167.02 20.49, 166.06 39.51, 163.79 60.22 M165.21 0.91 C165.45 18.51, 164.73 39.32, 165.39 59.5 M166.12 59.18 C131.87 61.34, 94.07 59.74, 0.51 59.46 M164.8 59.16 C124.16 60.22, 84.83 59.88, -0.57 59.68 M1.07 61.35 C-1.98 39.35, -1.7 16.79, -1.13 1.14 M0.46 59.08 C-0.03 41.5, -0.1 25.39, 0.94 -0.01" stroke="#000000" stroke-width="1" fill="none"></path></g><g transform="translate(440.28571428571416 287.96428571428567) rotate(0 57.5 25)"><text x="57.5" y="18" font-family="Virgil, Segoe UI Emoji" font-size="20px" fill="#000000" text-anchor="middle" style="white-space: pre;" direction="ltr">README.md</text><text x="57.5" y="43" font-family="Virgil, Segoe UI Emoji" font-size="20px" fill="#000000" text-anchor="middle" style="white-space: pre;" direction="ltr">python_ex1</text></g><g stroke-linecap="round" transform="translate(20.785714285714164 285.96428571428567) rotate(0 91 51.5)"><path d="M0.74 0.84 C50.6 0.47, 101.28 0.25, 180.78 -1.51 M0.14 0.86 C51.81 -1.14, 104.78 -0.53, 182.45 0.72 M183.59 -0.18 C182.34 28.27, 180.51 60.45, 182.44 103.61 M182.27 -0.81 C181.76 34.85, 182.6 67.84, 181.12 103.69 M183.88 103.12 C113.01 100.78, 46.36 101.71, -1.08 103.2 M181.73 102.68 C122.4 100.81, 60.3 101.15, 0.58 103.55 M-1.65 103.86 C-1.92 70.57, -1.69 39.67, -0.16 -0.82 M-0.27 102.01 C-0.82 78.63, 0.47 53.45, -0.62 0.31" stroke="#000000" stroke-width="1" fill="none"></path></g><g transform="translate(27.785714285714164 312.46428571428567) rotate(0 84 25)"><text x="84" y="18" font-family="Virgil, Segoe UI Emoji" font-size="20px" fill="#000000" text-anchor="middle" style="white-space: pre;" direction="ltr">README.md</text><text x="84" y="43" font-family="Virgil, Segoe UI Emoji" font-size="20px" fill="#000000" text-anchor="middle" style="white-space: pre;" direction="ltr">python_ex1/ID.py</text></g><g transform="translate(469.78571428571416 355.96428571428567) rotate(0 50 12.5)"><text x="0" y="18" font-family="Virgil, Segoe UI Emoji" font-size="20px" fill="#087f5b" text-anchor="start" style="white-space: pre;" direction="ltr">git commit</text></g><g stroke-linecap="round"><g transform="translate(406.64285714285705 375.71428571428567) rotate(0 26.39027258548873 -11.97645157633167)"><path d="M0.63 1.18 C8.69 1.18, 39.63 5.15, 48.22 0.79 C56.81 -3.57, 51.76 -20.37, 52.19 -24.98 M-0.5 0.76 C7.46 0.34, 38.76 3.68, 47.52 -0.91 C56.28 -5.5, 51.48 -22.58, 52.05 -26.79" stroke="#087f5b" stroke-width="1" fill="none"></path></g><g transform="translate(406.64285714285705 375.71428571428567) rotate(0 26.39027258548873 -11.97645157633167)"><path d="M58.6 -14.28 C56.59 -16.9, 55.33 -21.84, 51.13 -25.8 M56.97 -15.37 C55.72 -17.17, 54.91 -20.16, 52.49 -26.54" stroke="#087f5b" stroke-width="1" fill="none"></path></g><g transform="translate(406.64285714285705 375.71428571428567) rotate(0 26.39027258548873 -11.97645157633167)"><path d="M49.66 -13.7 C50.2 -16.53, 51.5 -21.64, 51.13 -25.8 M48.03 -14.79 C48.6 -16.62, 49.6 -19.74, 52.49 -26.54" stroke="#087f5b" stroke-width="1" fill="none"></path></g></g><g stroke-linecap="round" transform="translate(217.64285714285705 285.71428571428567) rotate(0 91 30)"><path d="M-0.78 1.76 C67.76 -2.19, 133.33 0.29, 181.12 1.23 M0.23 0.57 C49.94 0.4, 101.44 0.87, 182.12 -0.28 M181.04 0.69 C181.81 17.17, 182.7 38.47, 180.32 61.39 M181.87 0.05 C180.84 12.63, 181.98 24.88, 181.46 59.5 M180.68 60.24 C121.44 58.64, 63.45 61.47, 0.55 61.42 M181.79 59.39 C129.11 58.05, 78.04 59.07, 0.27 59.17 M-1.89 59.72 C-1.96 47.04, -0.08 32.18, -0.94 1.06 M0 59.29 C0.4 45.36, 1.14 31.49, 0.72 0.93" stroke="#d9480f" stroke-width="1" fill="none"></path></g><g transform="translate(224.64285714285705 303.21428571428567) rotate(0 84 12.5)"><text x="84" y="18" font-family="Virgil, Segoe UI Emoji" font-size="20px" fill="#d9480f" text-anchor="middle" style="white-space: pre;" direction="ltr">python_ex1/ID.py</text></g></svg>