<svg version="1.1" xmlns="http://www.w3.org/2000/svg" viewBox="0 0 841.0714285714287 430.5" width="841.0714285714287" height="430.5">
  <!-- svg-source:excalidraw -->
  
  <defs>
    <style>
      @font-face {
        font-family: "Virgil";
        src: url("https://excalidraw.com/Virgil.woff2");
      }
      @font-face {
        font-family: "Cascadia";
        src: url("https://excalidraw.com/Cascadia.woff2");
      }
    </style>
  </defs>
  <g stroke-linecap="round" transform="translate(468.49999999999994 12.28571428571422) rotate(0 85.5 35.5)"><path d="M1.18 1.75 C50.31 0.83, 100.1 2.47, 172.14 0.36 M0.31 -0.94 C38.44 0.05, 76.24 -0.03, 170.21 -0.97 M170.47 1.27 C172.32 22.22, 172.03 47.09, 171.91 71.12 M171.11 -0.7 C171.23 21.19, 170.12 42.35, 170.79 70.33 M172.49 71.77 C122.42 67.56, 79.27 70.38, -0.98 72.1 M170.49 70.63 C115.69 69.77, 62.51 69.49, 0.01 70.2 M0.67 71.49 C0.07 48.93, -2.02 28.49, 1.93 0.2 M-0.22 70.22 C-0.54 48.81, -0.01 25.34, -0.54 -0.81" stroke="#000000" stroke-width="1" fill="none"></path></g><g transform="translate(504.99999999999994 22.78571428571422) rotate(0 49 25)"><text x="49" y="18" font-family="Virgil, Segoe UI Emoji" font-size="20px" fill="#000000" text-anchor="middle" style="white-space: pre;" direction="ltr">remote </text><text x="49" y="43" font-family="Virgil, Segoe UI Emoji" font-size="20px" fill="#000000" text-anchor="middle" style="white-space: pre;" direction="ltr">repository</text></g><g stroke-linecap="round" transform="translate(10 182.28571428571422) rotate(0 410.53571428571433 119.10714285714289)"><path d="M0.05 0.13 C221.6 -2.09, 443.88 -2.73, 820.46 0.57 M0.08 -0.16 C224.8 2.9, 449.49 2.71, 821.21 0.27 M821.77 -1.3 C821 51.64, 821.3 104.17, 821.15 237.5 M821.52 -0.36 C820.81 79.46, 821.11 159.84, 820.84 237.74 M820.29 237.43 C646.45 239.82, 470.22 239.92, 0.14 238.65 M820.7 238.16 C627.55 236.82, 433.82 236.67, -0.03 238.36 M0.28 237.18 C-2.13 189.64, 0.95 142.62, 0.41 1.65 M0.14 238.93 C1.03 152.06, 0 64.51, 0.66 -0.78" stroke="#000000" stroke-width="1" fill="none"></path></g><g transform="translate(17.857142857142833 156.85714285714266) rotate(0 152.5 12.5)"><text x="0" y="18" font-family="Virgil, Segoe UI Emoji" font-size="20px" fill="#000000" text-anchor="start" style="white-space: pre;" direction="ltr">local (development) environment</text></g><g stroke-linecap="round" transform="translate(414.9285714285715 218.35714285714266) rotate(0 89 34.5)"><path d="M-0.27 1.95 C70.1 0.08, 136.4 1.14, 177.48 0.61 M-0.25 -0.47 C35.84 -0.26, 73.62 1.39, 177.18 -0.26 M178.55 -0.47 C179.2 25.19, 178.38 49.27, 178.73 69.22 M177.43 -0.89 C178.16 15.17, 178.09 31.11, 177.13 69.74 M179.53 69.86 C116.77 68.35, 57.85 68.34, -1.28 67.98 M178.26 68.58 C131.24 67.97, 84.41 69.14, -0.99 69.34 M-1.75 68.16 C1.82 46.8, 0.38 26.18, 1.26 -0.45 M0.69 69.43 C-0.65 52.85, 0.68 37.39, -0.09 -0.99" stroke="#364fc7" stroke-width="1" fill="none"></path></g><g transform="translate(454.9285714285715 227.85714285714266) rotate(0 49 25)"><text x="49" y="18" font-family="Virgil, Segoe UI Emoji" font-size="20px" fill="#364fc7" text-anchor="middle" style="white-space: pre;" direction="ltr">local</text><text x="49" y="43" font-family="Virgil, Segoe UI Emoji" font-size="20px" fill="#364fc7" text-anchor="middle" style="white-space: pre;" direction="ltr">repository</text></g><g stroke-linecap="round" transform="translate(21.0714285714285 220.5) rotate(0 89.5 34)"><path d="M1.14 0.36 C54.99 -0.33, 112.51 -1.13, 177.12 0.38 M-0.79 -0.97 C46.96 1.53, 92.4 0.58, 179.63 0.42 M179.91 0.12 C179.28 14.24, 179.92 30.41, 177.59 69.06 M178.79 -0.67 C178.34 16.92, 177.74 35.72, 179.39 67.02 M178.02 69.1 C143.22 69.86, 105.44 67.75, -0.75 66.14 M179.01 67.2 C127.56 67.63, 75.26 67.59, 0.25 68.17 M1.93 68.2 C1.09 53.76, 1.86 35.12, -1.55 0.32 M-0.54 67.19 C0.32 40.84, -0.57 14.54, -0.35 -0.79" stroke="#000000" stroke-width="1" fill="none"></path></g><g transform="translate(29.0714285714285 242) rotate(0 81.5 12.5)"><text x="81.5" y="18" font-family="Virgil, Segoe UI Emoji" font-size="20px" fill="#000000" text-anchor="middle" style="white-space: pre;" direction="ltr">working directory</text></g><g stroke-linecap="round" transform="translate(217.99999999999994 220.3214285714289) rotate(0 90 33.5)"><path d="M1.42 -0.52 C64.83 -0.51, 128.82 0.58, 179.49 -0.95 M0.69 -0.82 C39.43 0, 79.81 -1.41, 180.27 -0.24 M179.14 0.73 C180.26 21.74, 181.11 45.43, 178.85 65.23 M179.43 -0.87 C180.3 19.07, 178.57 36.39, 180.76 67.43 M181.09 65.72 C133.77 66.58, 87.71 67.06, 0.52 66.17 M180.38 66.01 C126.18 67.13, 71.84 66.27, -0.87 66.58 M1.97 68.26 C-0.51 38.87, 0.26 15.56, 1.39 0.85 M-0.93 66.91 C-0.45 50.14, -0.24 33.14, -0.46 0.53" stroke="#000000" stroke-width="1" fill="none"></path></g><g transform="translate(244.49999999999994 241.3214285714289) rotate(0 63.5 12.5)"><text x="63.5" y="18" font-family="Virgil, Segoe UI Emoji" font-size="20px" fill="#000000" text-anchor="middle" style="white-space: pre;" direction="ltr">staging area</text></g><g stroke-linecap="round" transform="translate(469.28571428571416 83.25) rotate(0 84.5 42.5)"><path d="M0.61 -1.88 C38.18 -0.35, 75.09 -0.5, 167.41 -1.94 M-0.26 0.63 C57.02 0.6, 113.48 1.14, 169.45 0.06 M169.22 -1.41 C169.7 25.02, 167.49 49.99, 168.58 83.66 M169.74 0.39 C167.54 22.2, 169.28 46.78, 168.51 85.55 M167.98 84.25 C113.4 83.66, 62.04 83.09, 0.02 83.4 M169.34 85.25 C119.57 82.71, 68.92 82.91, 0.97 85.1 M-0.45 83.45 C-0.51 59.13, 0.55 30.68, -1.07 -1.62 M-0.99 84.65 C0 51.95, 0.33 21.11, -0.24 -0.46" stroke="#000000" stroke-width="1" fill="none"></path></g><g transform="translate(475.28571428571416 100.75) rotate(0 78.5 25)"><text x="78.5" y="18" font-family="Virgil, Segoe UI Emoji" font-size="20px" fill="#000000" text-anchor="middle" style="white-space: pre;" direction="ltr">README.md</text><text x="78.5" y="43" font-family="Virgil, Segoe UI Emoji" font-size="20px" fill="#000000" text-anchor="middle" style="white-space: pre;" direction="ltr">python_ex1/id.py</text></g><g stroke-linecap="round" transform="translate(415.28571428571416 285.25) rotate(0 89 42.5)"><path d="M0.38 -0.79 C48.25 0.73, 95.92 -0.26, 178.7 1.37 M0.42 -0.78 C39.15 -1.36, 78.22 -1.07, 178.04 -0.43 M179.06 -0.86 C176.94 26.84, 177.67 55.89, 177.45 83.86 M177.02 -0.98 C179.4 18.57, 178.14 36.83, 178.18 85.54 M176.14 84.74 C136.54 83.51, 94.06 82.73, -0.13 85.75 M178.17 84.38 C141.35 85.02, 107.42 85.54, 0.25 85.99 M0.32 86.72 C1.58 54.99, -0.88 21.64, 1.58 -1.86 M-0.79 84.16 C0.39 60.83, 0.6 35.14, -0.13 0.33" stroke="#364fc7" stroke-width="1" fill="none"></path></g><g transform="translate(420.28571428571416 302.75) rotate(0 84 25)"><text x="84" y="18" font-family="Virgil, Segoe UI Emoji" font-size="20px" fill="#364fc7" text-anchor="middle" style="white-space: pre;" direction="ltr">README.md</text><text x="84" y="43" font-family="Virgil, Segoe UI Emoji" font-size="20px" fill="#364fc7" text-anchor="middle" style="white-space: pre;" direction="ltr">python_ex1/ID.py</text></g><g stroke-linecap="round" transform="translate(20.785714285714164 288.25) rotate(0 91 51.5)"><path d="M-0.51 -0.95 C35.87 -1.22, 75.61 2.09, 180.37 -0.53 M0.27 -0.24 C66.57 1.48, 132.27 0.99, 182.37 0.11 M180.85 -1.77 C182.13 22.3, 182 46.15, 180.27 104.49 M182.76 0.43 C180.51 35.42, 181.17 70.28, 181.36 102.49 M182.52 102.17 C134.2 101.16, 86.24 103.52, -1.98 103.67 M181.13 102.58 C123.89 101.98, 64.09 102.87, 0.63 102.78 M1.39 103.85 C-1.24 78.48, 1.41 55.35, -0.19 -1.99 M-0.46 103.53 C0.56 75.23, 0.68 48.69, 0.44 0.05" stroke="#000000" stroke-width="1" fill="none"></path></g><g transform="translate(27.785714285714164 314.75) rotate(0 84 25)"><text x="84" y="18" font-family="Virgil, Segoe UI Emoji" font-size="20px" fill="#000000" text-anchor="middle" style="white-space: pre;" direction="ltr">README.md</text><text x="84" y="43" font-family="Virgil, Segoe UI Emoji" font-size="20px" fill="#000000" text-anchor="middle" style="white-space: pre;" direction="ltr">python_ex1/ID.py</text></g><g transform="translate(369.1795652917146 78.78023352645846) rotate(0 45 12.5)"><text x="0" y="18" font-family="Virgil, Segoe UI Emoji" font-size="20px" fill="#087f5b" text-anchor="start" style="white-space: pre;" direction="ltr">git fetch</text></g><g stroke-linecap="round"><g transform="translate(418.31561511483727 203.4275912947403) rotate(180.65237229861003 26.12659069932306 -42.04031182420363)"><path d="M-0.07 1.17 C7.71 1.05, 38.35 15.33, 46.67 0.25 C54.99 -14.82, 49.26 -74.43, 49.86 -89.3 M-1.57 0.74 C6.57 0.14, 39.86 13.6, 48.81 -1.74 C57.77 -17.07, 51.94 -76.38, 52.16 -91.25" stroke="#087f5b" stroke-width="1" fill="none"></path></g><g transform="translate(418.31561511483727 203.4275912947403) rotate(180.65237229861003 26.12659069932306 -42.04031182420363)"><path d="M65.43 -65.27 C60.3 -73.66, 57.74 -81.3, 53.92 -91.35 M64.27 -64.37 C58.33 -74.68, 55.26 -84.69, 51.3 -90.38" stroke="#087f5b" stroke-width="1" fill="none"></path></g><g transform="translate(418.31561511483727 203.4275912947403) rotate(180.65237229861003 26.12659069932306 -42.04031182420363)"><path d="M44.92 -64.49 C45.9 -73.1, 49.45 -80.98, 53.92 -91.35 M43.77 -63.59 C45.97 -74.38, 51.04 -84.7, 51.3 -90.38" stroke="#087f5b" stroke-width="1" fill="none"></path></g></g><g stroke-linecap="round" transform="translate(640.1428571428571 10) rotate(0 52.5 35.5)"><path d="M-1.63 1.15 C37.28 1.95, 73.41 -0.14, 104.11 -0.17 M0.73 0.41 C27.42 0.3, 56.22 -0.22, 104.44 0.16 M106.28 -0.78 C106.47 16.78, 106.92 33.81, 105.15 69.01 M105.59 0.93 C105.42 17.12, 105.25 32.71, 105.72 71.23 M103.84 69.24 C65.02 71.98, 21.49 72.34, -1.14 71.47 M104.1 70.92 C77.08 69.51, 49.7 70.5, 0.25 70.44 M0.64 71.79 C2.19 50.74, 1.36 34.55, -1.15 1.45 M-0.76 70.61 C0.36 54.19, -0.04 36.75, 0.79 -0.09" stroke="#000000" stroke-width="1" fill="none"></path></g><g transform="translate(650.1428571428571 33) rotate(0 42.5 12.5)"><text x="42.5" y="18" font-family="Virgil, Segoe UI Emoji" font-size="20px" fill="#000000" text-anchor="middle" style="white-space: pre;" direction="ltr">branches</text></g><g stroke-linecap="round" transform="translate(640.6428571428571 84) rotate(0 52.5 40.5)"><path d="M-1.58 1.28 C26.73 -0.96, 51.87 -1.85, 105.11 -0.6 M0.09 0 C22.13 1.31, 42.05 1.47, 104.08 -0.98 M106.75 -1.48 C102.54 27.79, 105.35 51.24, 103.85 80.05 M104.65 -0.23 C106.17 29.8, 105.34 61.1, 104.88 81.89 M105.46 82.61 C71.39 82.62, 35.86 83.28, 1.53 80.08 M104.21 80.54 C65.64 81.65, 26.68 81.03, -0.9 81.57 M-0.27 80.86 C1.17 59.5, -1.76 42.71, -0.44 -0.05 M-0.92 80.64 C0.51 58.19, 0.68 37.88, -0.31 0.61" stroke="#000000" stroke-width="1" fill="none"></path></g><g transform="translate(672.1428571428571 112) rotate(0 21 12.5)"><text x="21" y="18" font-family="Virgil, Segoe UI Emoji" font-size="20px" fill="#000000" text-anchor="middle" style="white-space: pre;" direction="ltr">main</text></g><g stroke-linecap="round" transform="translate(594.3928571428571 218) rotate(0 53 35.5)"><path d="M1.37 1.62 C40.72 0.78, 76.22 -0.29, 105.82 -0.01 M0.85 -0.58 C41.03 -0.65, 80.27 -0.17, 105.19 -0.73 M106.2 -0.4 C107.27 16.25, 103.69 31.65, 104.56 71.63 M106.12 0.97 C107.2 16.08, 106.81 32.57, 106.9 71.27 M105.51 70.47 C80.47 71.21, 55.51 69.57, -0.59 70.07 M106.14 70.44 C82.15 70.82, 58.9 70.27, 0.68 71.04 M-1.71 69.13 C1.28 49.65, 0.75 27.11, -1.76 -1.01 M0.99 71.65 C-1.26 53.12, -0.07 37.08, -0.04 -0.28" stroke="#000000" stroke-width="1" fill="none"></path></g><g transform="translate(604.3928571428571 228.5) rotate(0 42.5 25)"><text x="42.5" y="18" font-family="Virgil, Segoe UI Emoji" font-size="20px" fill="#000000" text-anchor="middle" style="white-space: pre;" direction="ltr">local </text><text x="42.5" y="43" font-family="Virgil, Segoe UI Emoji" font-size="20px" fill="#000000" text-anchor="middle" style="white-space: pre;" direction="ltr">branches</text></g><g stroke-linecap="round" transform="translate(594.8928571428571 292) rotate(0 52.5 40.5)"><path d="M1.93 1.45 C36.78 -0.48, 76.1 -0.86, 106.63 1.23 M0.57 -0.27 C34.64 0.82, 69.77 -0.12, 104.21 -0.87 M106.89 0.58 C103.39 26.9, 103.65 53.83, 103.47 82.89 M105.53 0.21 C105.24 30.03, 106 58.64, 104.43 80.17 M105.24 81.52 C77.63 79.6, 47.59 79.79, -1.52 80.18 M104.88 81.05 C76.14 79.91, 47.22 80.45, 0.14 81.61 M1.71 81.97 C1.88 49.41, -1.06 15.32, -1.09 1.95 M-0.57 80.54 C-0.18 64.48, -0.84 45.82, 0.67 0.92" stroke="#000000" stroke-width="1" fill="none"></path></g><g transform="translate(626.3928571428571 320) rotate(0 21 12.5)"><text x="21" y="18" font-family="Virgil, Segoe UI Emoji" font-size="20px" fill="#000000" text-anchor="middle" style="white-space: pre;" direction="ltr">main</text></g><g stroke-linecap="round" transform="translate(701.8928571428571 218) rotate(0 55.5 35.5)"><path d="M-1.72 -0.26 C37.57 -2.32, 74.79 -1.31, 112.44 1.15 M-0.67 -0.14 C43.88 -0.37, 85.59 0.46, 111.32 -0.5 M112.57 1.6 C112.17 20.17, 112.03 38.94, 110.18 69.35 M111.02 0.36 C110.85 26.79, 111.23 53.33, 110.53 70.82 M112.95 72.54 C84.79 72.36, 62.94 72.18, 1.61 72.29 M110.61 71.81 C71.57 71.91, 32.39 72.62, -0.41 71.43 M0.99 72.57 C0.19 46, 0.26 17.84, 0.71 1.3 M-0.52 70.83 C-0.19 54.52, -0.29 36.16, 0.5 0.04" stroke="#364fc7" stroke-width="1" fill="none"></path></g><g transform="translate(714.8928571428571 228.5) rotate(0 42.5 25)"><text x="42.5" y="18" font-family="Virgil, Segoe UI Emoji" font-size="20px" fill="#364fc7" text-anchor="middle" style="white-space: pre;" direction="ltr">remote </text><text x="42.5" y="43" font-family="Virgil, Segoe UI Emoji" font-size="20px" fill="#364fc7" text-anchor="middle" style="white-space: pre;" direction="ltr">branches</text></g><g stroke-linecap="round" transform="translate(702.3928571428571 292) rotate(0 55.5 40.5)"><path d="M1.15 -1.55 C43 -0.4, 83.53 1.29, 112.73 -0.26 M0.96 -0.97 C27.09 0.02, 55.02 -0.35, 110.71 -0.38 M112.44 0.93 C112.93 24.31, 110.82 46.07, 112.38 82.73 M110.24 0.6 C110.64 21.27, 110.55 40.46, 110.23 80.59 M109.54 82.82 C83.7 83.49, 55.12 83.15, 1.11 82.2 M111.01 80.95 C68.39 82.56, 24.85 82.33, 0.73 81.16 M0.3 82.45 C-0.03 52.04, 0.31 24.88, -1.22 -1.84 M-0.85 81.48 C-0.53 61.21, 0.92 43.29, -0.16 0.58" stroke="#364fc7" stroke-width="1" fill="none"></path></g><g transform="translate(707.8928571428571 320) rotate(0 50 12.5)"><text x="50" y="18" font-family="Virgil, Segoe UI Emoji" font-size="20px" fill="#364fc7" text-anchor="middle" style="white-space: pre;" direction="ltr">origin/main</text></g></svg>