<svg version="1.1" xmlns="http://www.w3.org/2000/svg" viewBox="0 0 697.2857142857142 428.2142857142858" width="697.2857142857142" height="428.2142857142858">
  <!-- svg-source:excalidraw -->
  
  <defs>
    <style>
      @font-face {
        font-family: "Virgil";
        src: url("https://excalidraw.com/Virgil.woff2");
      }
      @font-face {
        font-family: "Cascadia";
        src: url("https://excalidraw.com/Cascadia.woff2");
      }
    </style>
  </defs>
  <g stroke-linecap="round" transform="translate(475.49999999999994 10) rotate(0 82 35.5)"><path d="M-1.91 1.6 C49.04 -0.61, 97.99 -1.26, 165.28 -0.71 M0.04 0.26 C45.52 -1.22, 90.19 -2.4, 163.96 -0.38 M164.08 1.65 C165.52 21.96, 164.05 39.63, 163.72 71.25 M163.61 -0.67 C164.05 23.41, 163.6 47.76, 163.24 71.22 M162.26 70.43 C100.78 72.25, 39.85 69.42, -1.73 72.52 M163.74 71.48 C124.33 69.07, 85.47 70.64, 0.76 70.91 M1.41 70 C-0.53 57.32, 1.72 39.57, 0.64 -0.02 M-0.88 71.45 C1.08 48.77, 0.41 24.8, -0.46 -0.26" stroke="#e67700" stroke-width="1" fill="none"></path></g><g transform="translate(508.49999999999994 20.5) rotate(0 49 25)"><text x="49" y="18" font-family="Virgil, Segoe UI Emoji" font-size="20px" fill="#e67700" text-anchor="middle" style="white-space: pre;" direction="ltr">remote </text><text x="49" y="43" font-family="Virgil, Segoe UI Emoji" font-size="20px" fill="#e67700" text-anchor="middle" style="white-space: pre;" direction="ltr">repository</text></g><g stroke-linecap="round" transform="translate(10 180) rotate(0 294.2857142857142 119.10714285714289)"><path d="M0.3 -0.04 C195.8 -2.19, 391.01 -2.17, 588.38 0.4 M0.06 0.07 C226.82 -1.01, 454.06 -0.76, 588.5 -0.12 M590.01 1.54 C588.87 70.63, 588.42 142.48, 589.29 237.19 M588.98 -0.79 C587.82 92.2, 587.15 186.17, 589.2 237.95 M587.87 239.01 C437.6 237.2, 286.94 238.15, -0.47 237.92 M588.5 237.88 C451.34 239.64, 314.05 239.31, -0.36 237.85 M-0.98 239.22 C-0.5 172.09, -0.87 108.76, 0.39 -1.27 M0.46 238.82 C1.65 182.97, 1.38 128.02, 0.67 0.27" stroke="#000000" stroke-width="1" fill="none"></path></g><g transform="translate(17.857142857142833 154.57142857142867) rotate(0 152.5 12.5)"><text x="0" y="18" font-family="Virgil, Segoe UI Emoji" font-size="20px" fill="#000000" text-anchor="start" style="white-space: pre;" direction="ltr">local (development) environment</text></g><g stroke-linecap="round" transform="translate(414.9285714285715 216.07142857142867) rotate(0 89 34.5)"><path d="M1.39 -0.74 C68.96 -0.63, 134.87 1.08, 179.71 0.08 M-0.55 -0.99 C57.98 -0.7, 115.87 -0.62, 177.99 0.04 M178.26 -0.6 C178.31 26.64, 179.46 51.56, 179.81 68.21 M178.04 -0.95 C177.58 16.28, 179.08 31.81, 177.56 68.13 M176.76 68.15 C127.97 72.29, 80.21 70.02, -1.33 68.48 M178.46 69.73 C116.76 67.41, 53.09 66.61, -0.28 69.71 M1.08 67.32 C1.04 51.74, 0.87 33.01, -1.38 -1.76 M-0.13 68.69 C-0.83 44.96, 0.42 21.78, 0.35 0.38" stroke="#364fc7" stroke-width="1" fill="none"></path></g><g transform="translate(454.9285714285715 225.57142857142867) rotate(0 49 25)"><text x="49" y="18" font-family="Virgil, Segoe UI Emoji" font-size="20px" fill="#364fc7" text-anchor="middle" style="white-space: pre;" direction="ltr">local</text><text x="49" y="43" font-family="Virgil, Segoe UI Emoji" font-size="20px" fill="#364fc7" text-anchor="middle" style="white-space: pre;" direction="ltr">repository</text></g><g stroke-linecap="round" transform="translate(21.0714285714285 218.21428571428578) rotate(0 89.5 34)"><path d="M1.28 -0.71 C52.44 1.66, 107.53 0.74, 179.52 0.3 M-0.04 -0.38 C56.78 1.47, 113.89 1.81, 179.82 0.86 M178.72 0.25 C179.95 25.44, 180.9 52.53, 177.66 68.97 M178.24 0.22 C179.77 13.66, 178.58 27.09, 178.71 67.12 M177.27 69.52 C106.38 66.5, 34.8 66.72, 0.97 67.64 M179.76 67.91 C139.42 68.4, 101.37 70.01, -0.5 67.42 M0.64 67.98 C0.1 42, -1.75 17.27, 0.89 1.09 M-0.46 67.74 C0.88 43.04, 0.44 17.8, -0.91 0.55" stroke="#000000" stroke-width="1" fill="none"></path></g><g transform="translate(29.0714285714285 239.71428571428578) rotate(0 81.5 12.5)"><text x="81.5" y="18" font-family="Virgil, Segoe UI Emoji" font-size="20px" fill="#000000" text-anchor="middle" style="white-space: pre;" direction="ltr">working directory</text></g><g stroke-linecap="round" transform="translate(217.99999999999994 218.03571428571445) rotate(0 90 33.5)"><path d="M1 1.71 C65.64 0.94, 131.42 0.78, 178.89 -1.98 M-0.3 -0.01 C53.36 1.12, 107.5 1.22, 180.13 -0.3 M178.78 1.81 C179.29 17.81, 181.06 36.42, 180.08 65.11 M179.68 -0.44 C179.27 14.74, 179.26 31.04, 179.38 66.58 M179.26 65.67 C141.01 66.9, 102.71 64.26, 0.91 68.45 M179.1 66.72 C112.95 64.87, 43.91 65.97, 0.54 66.16 M-1.52 65.62 C-1.76 45.65, 1.1 23.95, -0.26 -0.61 M0.33 67.35 C0.56 49.06, 0.73 33.69, -0.47 0.62" stroke="#000000" stroke-width="1" fill="none"></path></g><g transform="translate(244.49999999999994 239.03571428571445) rotate(0 63.5 12.5)"><text x="63.5" y="18" font-family="Virgil, Segoe UI Emoji" font-size="20px" fill="#000000" text-anchor="middle" style="white-space: pre;" direction="ltr">staging area</text></g><g stroke-linecap="round" transform="translate(474.28571428571416 80.96428571428578) rotate(0 82.5 30)"><path d="M0.08 0.52 C45.94 -1.05, 90.19 -3.39, 164.92 -0.75 M0.04 0.82 C47.62 0.94, 93.64 -0.28, 164.86 0.12 M164.21 -1.34 C165.61 18.69, 164.71 39.27, 163.48 60.43 M164.13 -0.29 C163.93 23.47, 164.19 44.54, 164.14 60.76 M164.48 60.97 C124.91 57.22, 86.44 60.36, 1.53 59.81 M165.71 59.5 C129.84 60.13, 96.39 58.7, 0.32 59.99 M-1.76 60.89 C1.55 42.05, 0.2 20.61, -0.92 -0.53 M0.38 59.09 C0.35 37.97, -0.67 15.05, 0.4 0.19" stroke="#e67700" stroke-width="1" fill="none"></path></g><g transform="translate(499.28571428571416 85.96428571428578) rotate(0 57.5 25)"><text x="57.5" y="18" font-family="Virgil, Segoe UI Emoji" font-size="20px" fill="#e67700" text-anchor="middle" style="white-space: pre;" direction="ltr">README.md</text><text x="57.5" y="43" font-family="Virgil, Segoe UI Emoji" font-size="20px" fill="#e67700" text-anchor="middle" style="white-space: pre;" direction="ltr">python_ex1</text></g><g stroke-linecap="round" transform="translate(415.28571428571416 282.9642857142858) rotate(0 89 42.5)"><path d="M0.3 0.36 C67.55 -2.44, 137.25 -1.21, 177.67 -0.59 M0.86 0.92 C53.28 -1.77, 106.17 -1.35, 178.43 -0.61 M178.97 -1.89 C177.74 31.29, 176.15 66.8, 179.49 84.36 M177.12 0.99 C176.64 21.31, 176.4 44.22, 177.41 84.63 M177.64 83.32 C137.36 87.31, 96.41 85.67, -1.81 83.2 M177.42 85.6 C130.18 83.27, 81.6 84.1, 0.23 84.24 M1.09 86.44 C0.49 64.77, -0.17 45.23, 1.59 0.66 M0.55 85.76 C-0.8 57.12, 0.07 28.19, 0.89 -0.11" stroke="#364fc7" stroke-width="1" fill="none"></path></g><g transform="translate(420.28571428571416 300.4642857142858) rotate(0 84 25)"><text x="84" y="18" font-family="Virgil, Segoe UI Emoji" font-size="20px" fill="#364fc7" text-anchor="middle" style="white-space: pre;" direction="ltr">README.md</text><text x="84" y="43" font-family="Virgil, Segoe UI Emoji" font-size="20px" fill="#364fc7" text-anchor="middle" style="white-space: pre;" direction="ltr">python_ex1/ID.py</text></g><g stroke-linecap="round" transform="translate(20.785714285714164 285.9642857142858) rotate(0 91 51.5)"><path d="M-1.11 -1.98 C59.24 -1.08, 118.31 -0.92, 181.97 0.08 M0.13 -0.3 C69.47 -1.55, 139.66 -2.29, 182.9 -0.39 M182.08 -1.89 C180.99 24.42, 184 47.33, 181.11 101.26 M181.38 -0.42 C180.23 28.71, 180.5 55.53, 181.33 102.74 M182.91 104.45 C120.13 101.28, 53.4 99.68, -0.57 104.41 M182.54 102.16 C136.85 104.08, 91.3 103.33, -0.69 102.12 M-0.26 102.39 C-1.48 66.98, 1.03 32.67, 0.71 0.76 M-0.47 103.62 C-0.17 81.62, 0.33 59.76, -0.25 -0.26" stroke="#000000" stroke-width="1" fill="none"></path></g><g transform="translate(27.785714285714164 312.4642857142858) rotate(0 84 25)"><text x="84" y="18" font-family="Virgil, Segoe UI Emoji" font-size="20px" fill="#000000" text-anchor="middle" style="white-space: pre;" direction="ltr">README.md</text><text x="84" y="43" font-family="Virgil, Segoe UI Emoji" font-size="20px" fill="#000000" text-anchor="middle" style="white-space: pre;" direction="ltr">python_ex1/ID.py</text></g><g transform="translate(607.2857142857142 255.96428571428578) rotate(0 40 12.5)"><text x="0" y="18" font-family="Virgil, Segoe UI Emoji" font-size="20px" fill="#087f5b" text-anchor="start" style="white-space: pre;" direction="ltr">git push</text></g><g stroke-linecap="round"><g transform="translate(581.9217641088367 177.56713950334097) rotate(359.6309342885224 25.54809819100865 22.412513084139846)"><path d="M-0.2 63.69 C7.76 63.77, 39.04 78.87, 47.73 64.09 C56.43 49.32, 51.26 -9.97, 51.99 -24.96 M-1.76 62.46 C6.04 62.79, 37.86 80.53, 46.78 65.66 C55.69 50.79, 51.33 -11.71, 51.74 -26.76" stroke="#087f5b" stroke-width="1" fill="none"></path></g><g transform="translate(581.9217641088367 177.56713950334097) rotate(359.6309342885224 25.54809819100865 22.412513084139846)"><path d="M61.92 1.21 C59.51 -5.42, 57.96 -13.53, 52 -27.37 M61.9 2.14 C59 -7.39, 56.81 -15.67, 51.78 -27.71" stroke="#087f5b" stroke-width="1" fill="none"></path></g><g transform="translate(581.9217641088367 177.56713950334097) rotate(359.6309342885224 25.54809819100865 22.412513084139846)"><path d="M41.4 1.58 C45.07 -5.13, 49.6 -13.34, 52 -27.37 M41.38 2.51 C44.35 -7.22, 48.02 -15.6, 51.78 -27.71" stroke="#087f5b" stroke-width="1" fill="none"></path></g></g></svg>