<svg version="1.1" xmlns="http://www.w3.org/2000/svg" viewBox="0 0 649.2857142857142 428.21428571428567" width="649.2857142857142" height="428.21428571428567">
  <!-- svg-source:excalidraw -->
  
  <defs>
    <style>
      @font-face {
        font-family: "Virgil";
        src: url("https://excalidraw.com/Virgil.woff2");
      }
      @font-face {
        font-family: "Cascadia";
        src: url("https://excalidraw.com/Cascadia.woff2");
      }
    </style>
  </defs>
  <g stroke-linecap="round" transform="translate(474.99999999999994 10) rotate(0 82 35.5)"><path d="M1.95 1.4 C48.31 1.6, 93.97 -0.37, 164.36 0.06 M-0.65 -0.38 C47.82 -1.03, 95.67 -0.67, 164.62 -0.63 M162.5 0.43 C164.74 20.67, 163.06 46.05, 165.5 72.6 M163.54 0.08 C164.4 27.3, 165.36 54.68, 163.28 70.07 M165.4 72.29 C110.97 70.03, 58.94 69.7, -1.35 70.34 M164.66 70.14 C127.7 70.95, 91.13 70.94, -0.01 71.22 M-0.13 70.98 C-1.76 44.98, -0.83 15.56, -0.06 0.19 M-0.25 71.05 C0.34 47.24, -0.2 23.23, -0.77 -0.02" stroke="#000000" stroke-width="1" fill="none"></path></g><g transform="translate(507.99999999999994 20.5) rotate(0 49 25)"><text x="49" y="18" font-family="Virgil, Segoe UI Emoji" font-size="20px" fill="#000000" text-anchor="middle" style="white-space: pre;" direction="ltr">remote </text><text x="49" y="43" font-family="Virgil, Segoe UI Emoji" font-size="20px" fill="#000000" text-anchor="middle" style="white-space: pre;" direction="ltr">repository</text></g><g stroke-linecap="round" transform="translate(10 179.99999999999994) rotate(0 294.2857142857142 119.10714285714286)"><path d="M0.3 0.01 C119.81 -2.42, 240.7 -1.62, 588.53 -0.1 M-0.19 -0.17 C197.7 0.86, 396.4 0.64, 588.61 -0.1 M589.33 -1.17 C586.43 52.01, 588.33 102.12, 589.92 239.5 M588.45 0.22 C588.34 67.75, 587.06 133.72, 588.74 238.62 M588.37 237.86 C415.25 239.25, 241.39 239.47, -0.61 237.45 M588.77 238.14 C407.35 236.1, 225.55 236.27, 0.35 238.13 M-1.61 239.43 C-0.69 163.9, 0.08 90.55, 0.7 -0.53 M0.1 238.63 C0.15 158.42, -0.15 77.37, 0.66 0.59" stroke="#000000" stroke-width="1" fill="none"></path></g><g transform="translate(17.857142857142833 154.57142857142856) rotate(0 152.5 12.5)"><text x="0" y="18" font-family="Virgil, Segoe UI Emoji" font-size="20px" fill="#000000" text-anchor="start" style="white-space: pre;" direction="ltr">local (development) environment</text></g><g stroke-linecap="round" transform="translate(414.9285714285715 216.07142857142856) rotate(0 82 34.5)"><path d="M-1.17 -1.94 C61.04 0.03, 121.25 -0.28, 164.73 -1.3 M-0.93 -0.08 C43.59 0.07, 86.06 0.46, 163.12 -0.75 M163.23 1.93 C165.82 23.77, 165.93 45.88, 163.65 68.09 M164.81 0.61 C163.18 20.32, 164.1 42.98, 163.94 69.7 M164 67.79 C102.85 67.62, 42.9 66.36, 0.17 70.31 M164.71 68.8 C128.95 68.91, 94.79 68.47, 0.1 68.93 M-0.98 68.51 C0.6 48.56, 1.49 27.11, 0.75 -0.5 M-0.42 69.74 C-0.86 47.91, 0.71 27.57, 0.01 0.9" stroke="#000000" stroke-width="1" fill="none"></path></g><g transform="translate(447.9285714285715 225.57142857142856) rotate(0 49 25)"><text x="49" y="18" font-family="Virgil, Segoe UI Emoji" font-size="20px" fill="#000000" text-anchor="middle" style="white-space: pre;" direction="ltr">local</text><text x="49" y="43" font-family="Virgil, Segoe UI Emoji" font-size="20px" fill="#000000" text-anchor="middle" style="white-space: pre;" direction="ltr">repository</text></g><g stroke-linecap="round" transform="translate(21.0714285714285 218.21428571428567) rotate(0 89.5 34)"><path d="M0.36 0.06 C53.87 1.48, 108.69 0.43, 178.24 -0.95 M0.62 -0.63 C46.16 -0.1, 91.23 -0.62, 179.21 0.45 M180.5 1.6 C180.35 17.2, 178.38 30.41, 179.16 67.7 M178.28 -0.93 C179.75 22.66, 179.5 45.03, 179.65 67.75 M177.65 67.34 C131.67 65.01, 87.53 68.23, -1.73 68.98 M178.99 68.22 C129.52 67.42, 78.4 67.58, -0.01 67.04 M-0.06 68.19 C1.17 42.02, 1.09 16.79, 0.11 0.24 M-0.77 67.98 C1.08 44.95, 0.29 21.38, 0.93 -0.87" stroke="#000000" stroke-width="1" fill="none"></path></g><g transform="translate(29.0714285714285 239.71428571428567) rotate(0 81.5 12.5)"><text x="81.5" y="18" font-family="Virgil, Segoe UI Emoji" font-size="20px" fill="#000000" text-anchor="middle" style="white-space: pre;" direction="ltr">working directory</text></g><g stroke-linecap="round" transform="translate(217.99999999999994 218.03571428571433) rotate(0 90 33.5)"><path d="M0.04 0.89 C60.45 -2.92, 117.13 -0.22, 181.53 -1.97 M0.18 0.47 C51.15 1.12, 101.36 1.07, 180.14 -0.98 M181.53 1.92 C179.33 20.78, 178.69 44.31, 181.79 68.89 M180.24 0.6 C179.69 20.17, 179.3 39.48, 180.78 67.77 M180.33 67.81 C122.1 67.27, 58.55 63.57, 0.93 67.11 M179.29 66.32 C141.61 67.51, 101.77 67.33, -0.27 67.65 M-0.93 67.72 C-1.38 46.92, -0.56 27.41, -0.33 0.41 M0.23 67.82 C-0.23 47.34, 0.8 28.81, 0.69 0.46" stroke="#862e9c" stroke-width="1" fill="none"></path></g><g transform="translate(244.49999999999994 239.03571428571433) rotate(0 63.5 12.5)"><text x="63.5" y="18" font-family="Virgil, Segoe UI Emoji" font-size="20px" fill="#862e9c" text-anchor="middle" style="white-space: pre;" direction="ltr">staging area</text></g><g stroke-linecap="round" transform="translate(474.28571428571416 80.96428571428567) rotate(0 82.5 30)"><path d="M0.81 1.22 C42.41 -1.17, 87.54 0.5, 165.01 -0.72 M0.83 1 C36.86 -1.35, 73.86 -0.82, 165.29 0.14 M166.98 0.79 C165.3 17.61, 164.31 33.73, 164.02 61.92 M164.34 0.55 C164.11 20.3, 164.36 40.08, 165.29 59.84 M163.52 60.76 C125.34 59.8, 87.24 58.34, 0.65 61.14 M164.66 60.62 C102.78 59.48, 39.17 60.38, 0.74 59.86 M1.76 59.19 C-0.78 37.97, -1.5 16.35, -0.77 1.61 M0.86 59.65 C-0.23 41.13, 0.98 20.75, -0.46 0.74" stroke="#000000" stroke-width="1" fill="none"></path></g><g transform="translate(499.28571428571416 85.96428571428567) rotate(0 57.5 25)"><text x="57.5" y="18" font-family="Virgil, Segoe UI Emoji" font-size="20px" fill="#000000" text-anchor="middle" style="white-space: pre;" direction="ltr">README.md</text><text x="57.5" y="43" font-family="Virgil, Segoe UI Emoji" font-size="20px" fill="#000000" text-anchor="middle" style="white-space: pre;" direction="ltr">python_ex1</text></g><g stroke-linecap="round" transform="translate(415.28571428571416 282.96428571428567) rotate(0 82.5 30)"><path d="M-1.64 -0.28 C32.59 1.73, 66.9 3.11, 163.81 -0.2 M0.99 -0.86 C63.46 0.3, 125.13 -0.36, 164.64 -0.06 M163.03 1.07 C163.98 20.51, 162.85 40.18, 166.22 61.88 M164.22 -0.49 C164.51 13.43, 164.72 28.75, 165.91 60.62 M164.15 61.79 C102.28 60.28, 43.63 61.06, -1.54 61.43 M164.95 59.6 C121.24 61.93, 76.89 61.95, 0.76 60.42 M0.87 60.63 C-1.45 44.22, -1.13 27.01, 0.8 -1.07 M0.96 60.83 C0.41 41.61, 0.79 24.01, 0.82 0.76" stroke="#000000" stroke-width="1" fill="none"></path></g><g transform="translate(440.28571428571416 287.96428571428567) rotate(0 57.5 25)"><text x="57.5" y="18" font-family="Virgil, Segoe UI Emoji" font-size="20px" fill="#000000" text-anchor="middle" style="white-space: pre;" direction="ltr">README.md</text><text x="57.5" y="43" font-family="Virgil, Segoe UI Emoji" font-size="20px" fill="#000000" text-anchor="middle" style="white-space: pre;" direction="ltr">python_ex1</text></g><g stroke-linecap="round" transform="translate(20.785714285714164 285.96428571428567) rotate(0 91 51.5)"><path d="M0.89 -1.04 C40.38 3.21, 81.06 0.22, 183.3 0.83 M-0.98 0.11 C56.9 -1.49, 112.16 -1.68, 182.34 -0.15 M182.31 0.26 C181.89 35.24, 180.47 72.08, 182.32 102.67 M182.94 -0.17 C181.33 25.06, 181.83 51.77, 182.45 103.46 M183.61 104.27 C110.16 102.54, 38.84 100.91, -1.75 102.68 M182.79 102.81 C125.29 103.32, 68.78 103.76, -0.34 103.89 M1.14 104.33 C-0.68 68.75, 1.59 39.64, -0.59 -1.9 M-0.19 102.89 C-0.6 65.17, -0.24 26.46, 0.13 -0.63" stroke="#000000" stroke-width="1" fill="none"></path></g><g transform="translate(27.785714285714164 312.46428571428567) rotate(0 84 25)"><text x="84" y="18" font-family="Virgil, Segoe UI Emoji" font-size="20px" fill="#000000" text-anchor="middle" style="white-space: pre;" direction="ltr">README.md</text><text x="84" y="43" font-family="Virgil, Segoe UI Emoji" font-size="20px" fill="#000000" text-anchor="middle" style="white-space: pre;" direction="ltr">python_ex1/ID.py</text></g><g stroke-linecap="round" transform="translate(216.78571428571416 285.46428571428567) rotate(0 91 30)"><path d="M-1.23 -0.2 C47.26 -0.6, 97.38 -0.95, 181.51 -0.38 M0.71 -0.49 C44.76 -0.42, 87.33 -0.4, 182.91 -0.16 M181.74 -1.32 C180.97 11.74, 181.31 24.85, 180.65 58.3 M181.32 -0.5 C182.9 22.37, 182.98 43.71, 182.67 60.5 M180.07 58.12 C128.73 60, 74.59 58.74, 1.1 59.7 M181.13 60.13 C139.74 60.13, 96.22 59.74, 0.18 59.84 M-1.19 59.62 C1.18 45.76, -2.4 28.88, 0.78 0.08 M0.36 60.61 C-0.37 47.04, -0.41 35.17, 0.59 0.07" stroke="#d9480f" stroke-width="1" fill="none"></path></g><g transform="translate(223.78571428571416 302.96428571428567) rotate(0 84 12.5)"><text x="84" y="18" font-family="Virgil, Segoe UI Emoji" font-size="20px" fill="#d9480f" text-anchor="middle" style="white-space: pre;" direction="ltr">python_ex1/ID.py</text></g><g stroke-linecap="round"><g transform="translate(199.28571428571416 376.46428571428567) rotate(0 25.580720458031863 -11.635528555903647)"><path d="M0.34 1.1 C8.11 1.1, 38.81 5.52, 47.26 0.95 C55.71 -3.62, 50.37 -21.77, 51.06 -26.29 M-0.94 0.64 C6.57 0.23, 37.51 3.62, 46.06 -0.67 C54.6 -4.97, 49.36 -21.05, 50.33 -25.13" stroke="#087f5b" stroke-width="1" fill="none"></path></g><g transform="translate(199.28571428571416 376.46428571428567) rotate(0 25.580720458031863 -11.635528555903647)"><path d="M56.53 -13.55 C54.49 -17.24, 51.36 -21.18, 50.15 -26.02 M55.5 -13.45 C53.96 -15.24, 53.07 -18.34, 50.15 -24.52" stroke="#087f5b" stroke-width="1" fill="none"></path></g><g transform="translate(199.28571428571416 376.46428571428567) rotate(0 25.580720458031863 -11.635528555903647)"><path d="M47.58 -13.17 C48.72 -17.02, 48.77 -21.1, 50.15 -26.02 M46.55 -13.07 C46.99 -14.97, 48.07 -18.15, 50.15 -24.52" stroke="#087f5b" stroke-width="1" fill="none"></path></g></g><g transform="translate(255.78571428571416 368.46428571428567) rotate(0 68 12.5)"><text x="0" y="18" font-family="Virgil, Segoe UI Emoji" font-size="20px" fill="#087f5b" text-anchor="start" style="white-space: pre;" direction="ltr">git add &lt;file&gt;</text></g></svg>