<svg version="1.1" xmlns="http://www.w3.org/2000/svg" viewBox="0 0 1047.0714285714284 494.52257324340235" width="1047.0714285714284" height="494.52257324340235">
  <!-- svg-source:excalidraw -->
  
  <defs>
    <style class="style-fonts">
      @font-face {
        font-family: "Virgil";
        src: url("https://excalidraw.com/Virgil.woff2");
      }
      @font-face {
        font-family: "Cascadia";
        src: url("https://excalidraw.com/Cascadia.woff2");
      }
    </style>
  </defs>
  <rect x="0" y="0" width="1047.0714285714284" height="494.52257324340235" fill="#ffffff"></rect><g stroke-linecap="round" transform="translate(674.4999999999999 10.221123923777668) rotate(0 85.5 35.5)"><path d="M0.98 -1.17 C40.21 0.38, 84.04 1.02, 171.45 -0.65 M0.37 0.45 C50.21 0.9, 100.73 0.74, 170.75 0.75 M170.03 -1.91 C170.96 15.86, 172.23 29.22, 169.12 71.65 M171.49 -0.13 C171.26 22.09, 171.45 42.71, 171.7 71.86 M172.48 72.78 C125.01 71.49, 81.96 71.4, -0.6 71.72 M171.3 70.12 C133.9 70.07, 94.64 69.6, -0.27 71.39 M-1.3 69.91 C-0.28 49.36, 1.34 23.87, -1.21 0.69 M0.97 71.41 C1.15 55.63, 1.08 38.29, -0.27 0.43" stroke="#000000" stroke-width="1" fill="none"></path></g><g transform="translate(711.9600601196288 20.721123923777668) rotate(0 48.039939880371094 25)"><text x="48.039939880371094" y="0" font-family="Virgil, Segoe UI Emoji" font-size="20px" fill="#000000" text-anchor="middle" style="white-space: pre;" direction="ltr" dominant-baseline="text-before-edge">remote </text><text x="48.039939880371094" y="25" font-family="Virgil, Segoe UI Emoji" font-size="20px" fill="#000000" text-anchor="middle" style="white-space: pre;" direction="ltr" dominant-baseline="text-before-edge">repository</text></g><g stroke-linecap="round" transform="translate(10 180.22112392377767) rotate(0 513.5357142857142 127.10714285714289)"><path d="M-0.62 -0.19 C256.85 2.47, 513.45 2.14, 1027.03 -0.49 M-0.04 -0.19 C226.11 -2.11, 452.06 -1.56, 1026.73 -0.02 M1027.07 0.46 C1027.1 68.97, 1024.55 140.69, 1027.16 255.25 M1026.91 0.31 C1028.07 56.87, 1028.65 115.57, 1026.79 253.99 M1026.78 254.87 C787.68 258.49, 546.87 258.17, -0.64 254.95 M1027.32 254.04 C749.11 250.23, 471.78 250.75, 0.1 254.39 M0.03 255.34 C2.67 184.11, 0.36 116.26, -1.14 -1.32 M0.46 254.98 C-1.6 183.88, -2.22 114.01, -0.44 0.63" stroke="#000000" stroke-width="1" fill="none"></path></g><g transform="translate(223.85714285714278 154.7925524952061) rotate(0 151.2898406982422 12.5)"><text x="0" y="0" font-family="Virgil, Segoe UI Emoji" font-size="20px" fill="#000000" text-anchor="start" style="white-space: pre;" direction="ltr" dominant-baseline="text-before-edge">local (development) environment</text></g><g stroke-linecap="round" transform="translate(227.07142857142844 218.435409638063) rotate(0 89.5 34)"><path d="M0.45 -0.65 C49.33 -1.37, 97.28 0.6, 179.91 -0.22 M-0.25 0.75 C44.5 1.05, 90.45 0.63, 178.04 0 M177.12 0.65 C179.55 23.6, 177.95 45.63, 178.74 67.61 M179.7 0.86 C178.64 22.73, 178.33 46.76, 179.89 67.64 M178.4 68.72 C109.13 71.22, 41.84 69.98, -1.76 69.24 M178.73 68.39 C133.18 66.83, 86.6 65.75, -0.55 68.02 M-1.21 68.69 C-1.96 41.23, -1.03 19.66, 0.82 1.14 M-0.27 68.43 C-0.89 41.91, -0.47 14.57, -0.04 0.01" stroke="#000000" stroke-width="1" fill="none"></path></g><g transform="translate(236.05151585170188 239.935409638063) rotate(0 80.51991271972656 12.5)"><text x="80.51991271972656" y="0" font-family="Virgil, Segoe UI Emoji" font-size="20px" fill="#000000" text-anchor="middle" style="white-space: pre;" direction="ltr" dominant-baseline="text-before-edge">working directory</text></g><g stroke-linecap="round" transform="translate(423.9999999999999 218.25683820949234) rotate(0 90 33.5)"><path d="M-1.22 -1.6 C58.84 1.01, 115.97 -0.83, 180.16 -1.24 M-0.06 -0.24 C49.09 0.57, 99.15 1.81, 180.63 -0.69 M181.28 -1.48 C181.2 13.54, 179.83 28.36, 179.98 65.6 M179.72 -0.66 C181.31 25.71, 180.21 50.45, 180.74 67.77 M181.85 66.41 C131.98 63.81, 83.99 64.72, -1.84 65.21 M180.44 66.72 C130.24 66.9, 81.8 68.14, 0.82 66.48 M-1.63 66.53 C1.72 51.76, 0.91 36.79, 1 -0.14 M0.78 66.87 C0.01 48.67, -0.28 30.7, 0.33 0.77" stroke="#000000" stroke-width="1" fill="none"></path></g><g transform="translate(451.26007843017567 239.25683820949234) rotate(0 62.73992156982422 12.5)"><text x="62.73992156982422" y="0" font-family="Virgil, Segoe UI Emoji" font-size="20px" fill="#000000" text-anchor="middle" style="white-space: pre;" direction="ltr" dominant-baseline="text-before-edge">staging area</text></g><g stroke-linecap="round" transform="translate(675.2857142857141 81.18540963806299) rotate(0 84.5 42.5)"><path d="M0.74 0.91 C49.52 0.42, 99.64 0.11, 168.51 1.5 M-0.49 -0.96 C36.41 0.69, 73.44 -0.27, 168.06 0.33 M169.98 -0.26 C169.16 26.75, 169.53 50.57, 170.41 86.71 M169.74 0.89 C168.4 23.31, 169.51 45.77, 168.7 85.36 M169.6 83.24 C132.97 83.64, 92.61 82.71, -0.54 85.77 M168.35 84.45 C114.18 85.23, 60.14 84.01, -0.6 85.35 M1.95 85.82 C1.84 67.36, 1.7 45.78, -0.54 0.85 M0.3 84.96 C-0.65 64.45, -0.33 44.09, -0.18 -0.56" stroke="#000000" stroke-width="1" fill="none"></path></g><g transform="translate(682.0657969883508 98.68540963806299) rotate(0 77.71991729736328 25)"><text x="77.71991729736328" y="0" font-family="Virgil, Segoe UI Emoji" font-size="20px" fill="#000000" text-anchor="middle" style="white-space: pre;" direction="ltr" dominant-baseline="text-before-edge">README.md</text><text x="77.71991729736328" y="25" font-family="Virgil, Segoe UI Emoji" font-size="20px" fill="#000000" text-anchor="middle" style="white-space: pre;" direction="ltr" dominant-baseline="text-before-edge">python_ex1/id.py</text></g><g stroke-linecap="round" transform="translate(226.7857142857141 286.185409638063) rotate(0 91 51.5)"><path d="M0.16 -1.24 C62.35 2.35, 124 0.73, 181.51 -0.97 M0.63 -0.69 C36.24 -0.19, 74.43 0.13, 181.26 0.49 M181.98 -1.4 C183.21 31.28, 181.09 58.57, 180.67 104.48 M182.74 0.77 C181.33 40.45, 180.83 81.1, 181.7 103.3 M180.16 101.21 C142.91 102.99, 105.39 103.1, -0.55 101.7 M182.82 102.48 C136.73 104.62, 91.97 103.46, -0.24 103.97 M1 102.86 C-1.13 68.74, -1.69 34.33, -0.27 0.6 M0.33 103.77 C-0.19 71.94, 0.89 42.25, 0.55 -0.17" stroke="#000000" stroke-width="1" fill="none"></path></g><g transform="translate(234.6957942417688 312.685409638063) rotate(0 83.08992004394531 25)"><text x="83.08992004394531" y="0" font-family="Virgil, Segoe UI Emoji" font-size="20px" fill="#000000" text-anchor="middle" style="white-space: pre;" direction="ltr" dominant-baseline="text-before-edge">README.md</text><text x="83.08992004394531" y="25" font-family="Virgil, Segoe UI Emoji" font-size="20px" fill="#000000" text-anchor="middle" style="white-space: pre;" direction="ltr" dominant-baseline="text-before-edge">python_ex1/ID.py</text></g><g stroke-linecap="round" transform="translate(27.821428571428555 219.560409638063) rotate(0 89.5 34)"><path d="M-1.7 1.58 C71.55 2.37, 139.99 1.44, 180.55 1.81 M-0.63 -0.97 C63.2 -0.76, 126.15 -0.75, 178.83 -0.65 M179.76 1.3 C177.24 15.67, 179.14 31.93, 177.89 68.33 M178.47 0.43 C178.54 20.75, 180.34 41.99, 178.77 68.42 M177.59 68.63 C125.89 68.77, 74.33 66.83, -0.56 66.7 M179.89 67.59 C126.3 68.67, 74.91 67.04, -0.32 68.77 M-1.38 68.12 C-1.72 42.58, 0.29 19.14, 0.78 1.03 M-0.59 67.57 C-0.86 49.37, -0.51 28.56, 0.78 -0.32" stroke="#1864ab" stroke-width="1" fill="none"></path></g><g transform="translate(89.20146397181918 241.060409638063) rotate(0 28.119964599609375 12.5)"><text x="28.119964599609375" y="0" font-family="Virgil, Segoe UI Emoji" font-size="20px" fill="#1864ab" text-anchor="middle" style="white-space: pre;" direction="ltr" dominant-baseline="text-before-edge">stash</text></g><g stroke-linecap="round" transform="translate(26.53571428571422 287.310409638063) rotate(0 91 51.5)"><path d="M0.7 1.7 C46.09 -0.66, 97.15 0.37, 183.05 1.3 M0.09 0.02 C62.51 1.8, 124.99 1.11, 181.39 -0.44 M180.53 -0.55 C182.82 36.51, 181.28 74.38, 182.22 104.56 M181.01 -0.38 C182.27 30.98, 181.22 62.93, 181.97 102.64 M181.98 104.64 C137.7 103.27, 89.85 102.27, -0.17 103.36 M181.52 103.81 C129.23 101.45, 75.47 103.03, 0.69 102.78 M-1.87 102.67 C0.85 82.62, 1.49 60.6, -0.3 -0.31 M-0.97 103.75 C-0.01 74.05, 1.38 46.13, 0.92 -0.7" stroke="#e67700" stroke-width="1" fill="none"></path></g><g transform="translate(34.44579424176891 313.810409638063) rotate(0 83.08992004394531 25)"><text x="83.08992004394531" y="0" font-family="Virgil, Segoe UI Emoji" font-size="20px" fill="#e67700" text-anchor="middle" style="white-space: pre;" direction="ltr" dominant-baseline="text-before-edge">README.md</text><text x="83.08992004394531" y="25" font-family="Virgil, Segoe UI Emoji" font-size="20px" fill="#e67700" text-anchor="middle" style="white-space: pre;" direction="ltr" dominant-baseline="text-before-edge">python_ex1/ID.py</text></g><g transform="translate(274.44672234554037 400.9547220213108) rotate(0 71.94990539550781 12.5)"><text x="0" y="0" font-family="Virgil, Segoe UI Emoji" font-size="20px" fill="#087f5b" text-anchor="start" style="white-space: pre;" direction="ltr" dominant-baseline="text-before-edge">git stash push</text></g><g stroke-linecap="round"><g transform="translate(252.2643572341085 416.97936828722504) rotate(0 -30.94127231061661 -10.34827859205302)"><path d="M0.8 0.45 C-8.61 0.29, -47.53 2.82, -57.64 -0.95 C-67.75 -4.73, -59.46 -18.47, -59.86 -22.18 M-0.24 -0.36 C-9.18 -0.4, -45.44 3.49, -55.45 0.08 C-65.46 -3.33, -59.61 -17.03, -60.29 -20.81" stroke="#087f5b" stroke-width="1" fill="none"></path></g><g transform="translate(252.2643572341085 416.97936828722504) rotate(0 -30.94127231061661 -10.34827859205302)"><path d="M-57.06 -10.8 C-58.95 -11.45, -58.53 -13.81, -61.18 -21.1 M-56.94 -9.76 C-58.62 -12.06, -59 -14.28, -59.83 -20.93" stroke="#087f5b" stroke-width="1" fill="none"></path></g><g transform="translate(252.2643572341085 416.97936828722504) rotate(0 -30.94127231061661 -10.34827859205302)"><path d="M-64.76 -11.56 C-65.1 -12.11, -63.12 -14.32, -61.18 -21.1 M-64.64 -10.52 C-64.6 -12.65, -63.26 -14.69, -59.83 -20.93" stroke="#087f5b" stroke-width="1" fill="none"></path></g></g><mask></mask><g transform="translate(278.44672234554037 448.9547220213108) rotate(0 66.36991119384766 12.5)"><text x="0" y="0" font-family="Virgil, Segoe UI Emoji" font-size="20px" fill="#087f5b" text-anchor="start" style="white-space: pre;" direction="ltr" dominant-baseline="text-before-edge">git stash pop</text></g><g stroke-linecap="round"><g transform="translate(196.30386520268326 466.7047220213108) rotate(0 35.185038295707955 -8.180456408942518)"><path d="M-0.8 0.18 C10.41 0.65, 55.63 7.06, 66.59 3.54 C77.56 0.02, 65.4 -16.83, 65.02 -20.95 M0.99 -0.78 C12.17 -0.72, 55.56 4.84, 66.09 1.7 C76.62 -1.45, 64.52 -15.98, 64.18 -19.63" stroke="#087f5b" stroke-width="1" fill="none"></path></g><g transform="translate(196.30386520268326 466.7047220213108) rotate(0 35.185038295707955 -8.180456408942518)"><path d="M72.74 -10.23 C71 -13.35, 68.42 -16.17, 63.93 -19.52 M72.89 -10.9 C69.07 -15.11, 65.88 -17.46, 63.78 -19.45" stroke="#087f5b" stroke-width="1" fill="none"></path></g><g transform="translate(196.30386520268326 466.7047220213108) rotate(0 35.185038295707955 -8.180456408942518)"><path d="M65.27 -6.85 C65.34 -10.74, 64.58 -14.39, 63.93 -19.52 M65.43 -7.52 C64.57 -13.04, 64.35 -16.74, 63.78 -19.45" stroke="#087f5b" stroke-width="1" fill="none"></path></g></g><mask></mask><g stroke-linecap="round" transform="translate(205.8520076716437 396.05788071411007) rotate(0 13.500000000000014 17.5)"><path d="M0.12 0.81 L26.48 0.65 L25.6 34.89 L-0.73 34.29" stroke="none" stroke-width="0" fill="#ffffff"></path><path d="M0.33 1.51 C9.01 1.69, 15.42 0.03, 25.99 0.63 M0.04 -0.86 C5.69 0.7, 11.48 0.86, 26.69 -0.02 M26.19 1.29 C26.04 7.38, 26 15.63, 27.39 36.08 M26.55 -0.34 C26.65 11.04, 27.76 23.26, 27.34 34.78 M25.86 35.08 C21.28 35.87, 16.09 33.78, 0.08 34.12 M27.02 34.27 C20.38 34.41, 14.53 36.05, 0.52 34.22 M-0.46 35.8 C-0.34 26.31, 0.34 20.63, -1.85 1.97 M0.11 34.59 C0.1 27.87, -0.31 18.78, -0.09 0.03" stroke="#ffff" stroke-width="1" fill="none"></path></g><g transform="translate(216.642008587171 401.05788071411007) rotate(0 2.7099990844726562 12.5)"><text x="2.7099990844726562" y="0" font-family="Virgil, Segoe UI Emoji" font-size="20px" fill="#087f5b" text-anchor="middle" style="white-space: pre;" direction="ltr" dominant-baseline="text-before-edge">1</text></g><g stroke-linecap="round" transform="translate(218.08927615756647 449.52257324340235) rotate(0 13.5 17.5)"><path d="M-1.65 -0.34 L26.66 0.65 L26.1 35.06 L-1.23 33.97" stroke="none" stroke-width="0" fill="#ffffff"></path><path d="M1.79 -0.29 C6.74 0.25, 10.22 -1.31, 28.46 0.37 M-0.55 -0.29 C10.09 -0.85, 18.33 0.01, 26.42 -0.3 M27.98 -1.8 C26.03 11.17, 25.94 22.09, 27.21 36.9 M26.03 -0.36 C28.17 13.9, 27.18 26.22, 27.08 35.48 M26.75 33.67 C19.96 34.15, 12.92 36.86, 0.92 33.52 M26.77 35.83 C17.92 34.67, 8.74 34.59, 0.89 34.06 M0.53 33.48 C0.21 27.77, -0.37 19.2, 0.49 -0.63 M0.74 34.9 C-0.05 28.43, -0.22 19.89, 0.42 0.13" stroke="#ffff" stroke-width="1" fill="none"></path></g><g transform="translate(224.77928622836725 454.52257324340235) rotate(0 6.809989929199219 12.5)"><text x="6.809989929199219" y="0" font-family="Virgil, Segoe UI Emoji" font-size="20px" fill="#087f5b" text-anchor="middle" style="white-space: pre;" direction="ltr" dominant-baseline="text-before-edge">3</text></g><g stroke-linecap="round" transform="translate(618.4184017347177 220.35714285714312) rotate(0 89 34.5)"><path d="M0.21 -0.54 C53.14 -1.32, 102.02 2.14, 179.18 0.16 M-0.7 0.75 C44.25 -2.25, 86.57 -0.96, 177.98 -0.1 M176.28 1.2 C176.47 24.67, 178.16 46.3, 178.34 68.3 M177.69 0.28 C179.24 15.01, 177.58 30.7, 177.27 69.11 M176.22 69.68 C131.61 70.06, 86.96 70.35, 0.89 69.56 M178.71 69.88 C113.18 68.17, 49.14 67.7, -0.95 68.69 M-1.91 68.83 C-1.35 41.85, 0.9 14.56, 1.57 1.45 M-0.09 68.82 C-0.21 47.32, 0.36 25.01, -0.49 0.44" stroke="#364fc7" stroke-width="1" fill="none"></path></g><g transform="translate(659.3784618543466 229.85714285714312) rotate(0 48.039939880371094 25)"><text x="48.039939880371094" y="0" font-family="Virgil, Segoe UI Emoji" font-size="20px" fill="#364fc7" text-anchor="middle" style="white-space: pre;" direction="ltr" dominant-baseline="text-before-edge">local</text><text x="48.039939880371094" y="25" font-family="Virgil, Segoe UI Emoji" font-size="20px" fill="#364fc7" text-anchor="middle" style="white-space: pre;" direction="ltr" dominant-baseline="text-before-edge">repository</text></g><g stroke-linecap="round" transform="translate(618.7755445918604 287.25) rotate(0 89 42.5)"><path d="M1.35 -1.93 C45.79 2.02, 95.89 0.65, 176.87 1.67 M0.88 -0.52 C70.45 -0.57, 141.22 -1.43, 178.45 -0.32 M176.69 0.85 C177.64 27.33, 177.61 56.64, 176.32 85.69 M179 0.1 C177.08 28.1, 177.01 54.57, 177.53 85.38 M176.7 84.65 C109.68 85.54, 43.94 86.17, 1.2 84.56 M177.26 85.18 C134.01 86.27, 90.49 86.25, 0.88 85.02 M-1.33 84.6 C1.73 59.16, 2.38 36.68, 0.48 0.92 M0.11 85.68 C0.75 59.26, -0.41 32.52, -0.49 -0.41" stroke="#364fc7" stroke-width="1" fill="none"></path></g><g transform="translate(624.685624547915 304.75) rotate(0 83.08992004394531 25)"><text x="83.08992004394531" y="0" font-family="Virgil, Segoe UI Emoji" font-size="20px" fill="#364fc7" text-anchor="middle" style="white-space: pre;" direction="ltr" dominant-baseline="text-before-edge">README.md</text><text x="83.08992004394531" y="25" font-family="Virgil, Segoe UI Emoji" font-size="20px" fill="#364fc7" text-anchor="middle" style="white-space: pre;" direction="ltr" dominant-baseline="text-before-edge">python_ex1/ID.py</text></g><g stroke-linecap="round" transform="translate(797.8826874490035 220) rotate(0 53 35.5)"><path d="M-1.56 1.53 C30.1 1.18, 56.7 2.69, 107.93 -1.41 M-0.17 0.76 C39.71 0.46, 79.92 0.24, 106.37 -0.86 M106.38 -1.35 C105.87 24.84, 103.86 51.78, 106.41 70.38 M105.34 0.87 C105.98 23.39, 106.24 46.94, 106.79 70.11 M105.15 70.94 C71.5 71.38, 36.42 70.38, -1.14 72.42 M105.3 70.71 C63.97 70.89, 24.72 71.22, -0.07 70.05 M0.92 70.05 C2.04 51.76, 0.95 30.53, 0.23 -0.19 M0.67 71.72 C-0.57 51.45, -0.57 30.61, 0.32 0.97" stroke="#000000" stroke-width="1" fill="none"></path></g><g transform="translate(809.302731394316 230.5) rotate(0 41.5799560546875 25)"><text x="41.5799560546875" y="0" font-family="Virgil, Segoe UI Emoji" font-size="20px" fill="#000000" text-anchor="middle" style="white-space: pre;" direction="ltr" dominant-baseline="text-before-edge">local </text><text x="41.5799560546875" y="25" font-family="Virgil, Segoe UI Emoji" font-size="20px" fill="#000000" text-anchor="middle" style="white-space: pre;" direction="ltr" dominant-baseline="text-before-edge">branches</text></g><g stroke-linecap="round" transform="translate(798.3826874490035 294) rotate(0 52.5 40.5)"><path d="M1.18 0.16 C20.25 0.86, 44.69 -2.21, 106.5 1.75 M-0.02 -0.1 C26.45 -1.11, 52.38 -1.66, 105.6 -0.66 M105.34 -0.7 C103.47 28.45, 105.56 54.89, 105.56 83 M104.27 0.11 C104 25.46, 105.26 49.28, 105.34 80.35 M105.89 81.56 C76.53 80.53, 44.53 82.39, 1.75 79.53 M104.05 80.69 C72.44 80.72, 38.06 79.74, -0.09 80.33 M1.57 82.45 C0.11 59.24, -0.15 35.45, -0.37 0.22 M-0.49 81.44 C-1.04 50.81, -0.22 22.4, -0.97 -0.81" stroke="#000000" stroke-width="1" fill="none"></path></g><g transform="translate(831.0227097268355 322) rotate(0 19.85997772216797 12.5)"><text x="19.85997772216797" y="0" font-family="Virgil, Segoe UI Emoji" font-size="20px" fill="#000000" text-anchor="middle" style="white-space: pre;" direction="ltr" dominant-baseline="text-before-edge">main</text></g><g stroke-linecap="round" transform="translate(905.3826874490035 220) rotate(0 55.5 35.5)"><path d="M-1.13 1.67 C43.75 -1.5, 85.13 1.66, 109.95 -0.35 M0.45 -0.32 C42.11 -0.75, 84.07 -0.55, 111.43 0.19 M109.32 0.69 C111.53 15.9, 111.68 35.04, 111.19 69.68 M110.53 0.38 C111.27 26.6, 110.82 54.34, 110.83 70.58 M112.2 70.56 C76.9 72.73, 46.82 69.84, 0.37 69.6 M111.88 71.02 C80.84 69.7, 50.74 69.99, -0.2 71.46 M0.48 71.92 C-0.33 52.88, -0.92 35.36, 1.35 1.35 M-0.49 70.59 C0.68 45.57, -0.62 17.38, -0.12 0.46" stroke="#364fc7" stroke-width="1" fill="none"></path></g><g transform="translate(919.302731394316 230.5) rotate(0 41.5799560546875 25)"><text x="41.5799560546875" y="0" font-family="Virgil, Segoe UI Emoji" font-size="20px" fill="#364fc7" text-anchor="middle" style="white-space: pre;" direction="ltr" dominant-baseline="text-before-edge">remote </text><text x="41.5799560546875" y="25" font-family="Virgil, Segoe UI Emoji" font-size="20px" fill="#364fc7" text-anchor="middle" style="white-space: pre;" direction="ltr" dominant-baseline="text-before-edge">branches</text></g><g stroke-linecap="round" transform="translate(905.8826874490035 294) rotate(0 55.5 40.5)"><path d="M1.93 -1.41 C35.7 0.83, 67.36 -1.27, 112.52 -0.04 M0.37 -0.86 C32.82 -0.31, 64.87 0.54, 110.33 0.17 M111.41 -0.62 C110.88 23.45, 110.51 41.6, 112.74 79.54 M111.79 -0.89 C110.96 24.54, 110.45 49.94, 110.97 81.45 M109.86 82.42 C76.32 79.28, 38.5 79.35, -0.58 79.11 M110.93 80.05 C81.05 80.36, 51.07 81.48, -0.47 81.78 M0.23 80.81 C-0.56 51.03, 1.16 21.97, 1.44 -0.99 M0.32 81.97 C-0.57 52.33, 0.28 25.74, -1 -0.63" stroke="#364fc7" stroke-width="1" fill="none"></path></g><g transform="translate(912.6227463479293 322) rotate(0 48.75994110107422 12.5)"><text x="48.75994110107422" y="0" font-family="Virgil, Segoe UI Emoji" font-size="20px" fill="#364fc7" text-anchor="middle" style="white-space: pre;" direction="ltr" dominant-baseline="text-before-edge">origin/main</text></g><g stroke-linecap="round" transform="translate(846.9005445918606 10) rotate(0 52.5 35.5)"><path d="M1.66 1.86 C30.82 -0.77, 57.92 0.59, 105.09 1.92 M-0.03 -0.33 C22.87 0.33, 45.46 -0.03, 105.38 0.85 M106.98 -0.29 C103.12 25.21, 104.66 45.37, 105.68 70.04 M104.91 -0.69 C106.34 22.28, 105.89 42.98, 105.4 71.39 M103.14 70.66 C66.5 71.05, 31.22 69.09, 1.54 71.02 M105.74 71.49 C78.72 69.13, 51.26 70.93, -0.05 71.23 M-0.3 72.89 C0.55 44.82, -1.67 13.47, -0.58 -0.86 M0.53 70.08 C-1.12 46.66, -1.03 20, 0.79 0.66" stroke="#000000" stroke-width="1" fill="none"></path></g><g transform="translate(857.8205885371731 33) rotate(0 41.5799560546875 12.5)"><text x="41.5799560546875" y="0" font-family="Virgil, Segoe UI Emoji" font-size="20px" fill="#000000" text-anchor="middle" style="white-space: pre;" direction="ltr" dominant-baseline="text-before-edge">branches</text></g><g stroke-linecap="round" transform="translate(847.4005445918606 84) rotate(0 52.5 40.5)"><path d="M1.59 -1.43 C24.36 -1.05, 49.87 0.95, 103.28 -0.94 M0.38 -0.56 C23.13 -0.57, 45.66 1.2, 105.32 -0.71 M103.62 1.63 C105.97 18.48, 106.48 39.57, 105.04 82.39 M105.85 0.85 C105.32 30.06, 105.33 60.3, 105.49 80.22 M103.16 81.25 C75.04 79.11, 47.54 80.84, -0.96 79.56 M105.2 80.16 C83.09 82.48, 62.71 81.74, 0.91 81.42 M0.84 82.61 C-1.26 56.94, -0.46 35.95, 1.07 0.93 M-0.79 81.75 C-1.13 62.77, 0.36 46.88, -0.4 0.61" stroke="#000000" stroke-width="1" fill="none"></path></g><g transform="translate(880.0405668696926 112) rotate(0 19.85997772216797 12.5)"><text x="19.85997772216797" y="0" font-family="Virgil, Segoe UI Emoji" font-size="20px" fill="#000000" text-anchor="middle" style="white-space: pre;" direction="ltr" dominant-baseline="text-before-edge">main</text></g><g transform="translate(573.5384102315472 80.72552271682844) rotate(0 33.71995544433594 12.5)"><text x="0" y="0" font-family="Virgil, Segoe UI Emoji" font-size="20px" fill="#087f5b" text-anchor="start" style="white-space: pre;" direction="ltr" dominant-baseline="text-before-edge">git pull</text></g><g stroke-linecap="round"><g transform="translate(622.6744600546699 205.37288048511027) rotate(180.65237229861003 25.958227406241576 -41.66218339403167)"><path d="M-0.66 0.46 C7.51 0.59, 39.18 15.01, 47.8 0.05 C56.42 -14.92, 50.63 -74.27, 51.08 -89.32 M1.2 -0.34 C9.32 0.06, 38.69 16.77, 46.88 1.61 C55.07 -13.55, 49.76 -76.13, 50.36 -91.28" stroke="#087f5b" stroke-width="1" fill="none"></path></g><g transform="translate(622.6744600546699 205.37288048511027) rotate(180.65237229861003 25.958227406241576 -41.66218339403167)"><path d="M62.02 -63.24 C59.3 -68.88, 58.24 -75.51, 50.02 -93.17 M61.04 -63.37 C57.02 -73, 53.29 -83.34, 50.92 -91.66" stroke="#087f5b" stroke-width="1" fill="none"></path></g><g transform="translate(622.6744600546699 205.37288048511027) rotate(180.65237229861003 25.958227406241576 -41.66218339403167)"><path d="M41.5 -62.78 C42.92 -68.4, 45.99 -75.13, 50.02 -93.17 M40.52 -62.91 C44.21 -72.81, 48.18 -83.33, 50.92 -91.66" stroke="#087f5b" stroke-width="1" fill="none"></path></g></g><mask></mask><g stroke-linecap="round" transform="translate(611.1505445918606 124.00000000000045) rotate(0 13.5 17.5)"><path d="M-1.95 1.17 L28.7 -1.2 L26.62 36.03 L-1.17 35.58" stroke="none" stroke-width="0" fill="#ffffff"></path><path d="M0.76 1.26 C8.1 2.15, 16.96 -0.09, 25.94 1.64 M0.98 -0.24 C7.01 -0.33, 15.36 -0.87, 27.72 -0.97 M25.15 -1.94 C25.84 10.97, 27.18 24.4, 26.46 33.61 M26.12 -0.26 C28.09 10.65, 27.78 20.86, 27.13 35.02 M27.85 35.22 C22.76 33.78, 16.78 34.7, -0.84 36.03 M26.73 35.17 C20.02 35.02, 11.65 35.92, 0.54 34.57 M0.37 34.76 C1.4 22.61, 0.3 9.82, -0.17 0.88 M-0.28 35.66 C0.91 23.3, -0.57 10.11, -0.31 0.62" stroke="#ffff" stroke-width="1" fill="none"></path></g><g transform="translate(617.5305494746731 129.00000000000045) rotate(0 7.1199951171875 12.5)"><text x="7.1199951171875" y="0" font-family="Virgil, Segoe UI Emoji" font-size="20px" fill="#087f5b" text-anchor="middle" style="white-space: pre;" direction="ltr" dominant-baseline="text-before-edge">2</text></g></svg>